<?xml version="1.0" encoding="utf-8"?>
<!-- Generator: Adobe Illustrator 16.0.0, SVG Export Plug-In . SVG Version: 6.00 Build 0)  -->
<!DOCTYPE svg PUBLIC "-//W3C//DTD SVG 1.1//EN" "http://www.w3.org/Graphics/SVG/1.1/DTD/svg11.dtd">
<svg version="1.1" id="Capa_1" xmlns="http://www.w3.org/2000/svg" xmlns:xlink="http://www.w3.org/1999/xlink" x="0px" y="0px"
	 width="75px" height="75px" viewBox="0 0 75 75" enable-background="new 0 0 75 75" xml:space="preserve">
<g>
	<path fill-rule="evenodd" clip-rule="evenodd" d="M58.308,62.964c-13.146,0-26.29,0-39.435,0c-0.04-0.025-0.077-0.066-0.121-0.076
		c-2.822-0.62-4.438-2.611-4.439-5.488c-0.003-5.002-0.001-10.005-0.001-15.008c0-0.175,0-0.35,0-0.567c0.287,0,0.499,0,0.711,0
		c15.767,0,31.534-0.001,47.301,0.001c0.214,0,0.428,0.022,0.641,0.034c0,5.45,0,10.899,0,16.349
		c-0.03,0.092-0.073,0.182-0.09,0.276c-0.325,1.85-1.332,3.191-3.03,3.985C59.36,62.696,58.821,62.803,58.308,62.964z"/>
	<path fill-rule="evenodd" clip-rule="evenodd" d="M12.234,25.115c0.026-0.06,0.064-0.118,0.078-0.18
		c0.313-1.403,1.196-2.234,2.579-2.552c0.511-0.118,1.109-0.419,1.518-0.258c0.411,0.161,0.646,0.788,0.941,1.222
		c1.773,2.605,3.541,5.212,5.311,7.819c0.092,0.136,0.183,0.271,0.146,0.356c-0.201,0.315-0.455,0.608-0.594,0.948
		c-0.925,2.257-1.832,4.522-2.726,6.792c-0.128,0.326-0.286,0.449-0.645,0.443c-1.483-0.021-2.967-0.009-4.486-0.009
		c-0.017-0.153-0.039-0.278-0.043-0.403c-0.007-0.198-0.017-0.397,0-0.594c0.289-3.408-0.356-6.688-1.325-9.929
		c-0.283-0.945-0.505-1.908-0.754-2.863C12.234,25.643,12.234,25.379,12.234,25.115z"/>
	<path fill-rule="evenodd" clip-rule="evenodd" d="M62.964,21.944c-0.219,0.535-0.622,0.792-1.188,0.909
		c-1.484,0.309-2.958,0.673-4.44,0.99c-0.162,0.035-0.446-0.034-0.528-0.154c-2.174-3.171-4.327-6.355-6.484-9.538
		c-0.017-0.025-0.018-0.062-0.041-0.153c0.652-0.159,1.305-0.317,1.956-0.476c1.759-0.429,3.518-0.858,5.276-1.288
		c0.363,0,0.727,0,1.09,0c0.055,0.031,0.105,0.076,0.164,0.092c1.255,0.35,2.038,1.158,2.366,2.416
		c0.279,1.068,0.557,2.137,0.848,3.202c0.319,1.17,0.654,2.336,0.981,3.505C62.964,21.614,62.964,21.779,62.964,21.944z"/>
	<path fill-rule="evenodd" clip-rule="evenodd" d="M62.964,39.68c-3.148,0.005-6.298,0.011-9.447,0.014
		c-0.044,0-0.089-0.025-0.165-0.048c0.049-0.146,0.089-0.285,0.143-0.419c1.003-2.509,2.015-5.015,3.003-7.53
		c0.139-0.354,0.322-0.458,0.688-0.453c1.451,0.021,2.903,0.037,4.353-0.003c0.678-0.019,1.14,0.207,1.426,0.81
		C62.964,34.594,62.964,37.137,62.964,39.68z"/>
	<path fill-rule="evenodd" clip-rule="evenodd" d="M18.674,21.484c2.432-0.578,4.805-1.145,7.179-1.704
		c1.325-0.312,1.326-0.306,2.084,0.809c1.837,2.702,3.675,5.404,5.512,8.107c0.092,0.135,0.182,0.272,0.297,0.446
		c-0.122,0.055-0.213,0.115-0.313,0.138c-2.604,0.596-5.21,1.186-7.814,1.783c-0.26,0.06-0.44,0.061-0.62-0.206
		c-2.047-3.039-4.111-6.066-6.169-9.097C18.785,21.693,18.75,21.62,18.674,21.484z"/>
	<path fill-rule="evenodd" clip-rule="evenodd" d="M39.578,16.537c0.763-0.185,1.477-0.359,2.191-0.529
		c1.925-0.458,3.851-0.913,5.775-1.372c0.261-0.062,0.475-0.122,0.678,0.179c2.099,3.12,4.215,6.228,6.325,9.34
		c0.046,0.067,0.077,0.143,0.149,0.277c-0.308,0.079-0.585,0.156-0.864,0.22c-2.186,0.5-4.373,0.993-6.558,1.498
		c-0.283,0.065-0.481,0.053-0.679-0.211c-2.271-3.038-4.557-6.067-6.836-9.099C39.704,16.764,39.663,16.678,39.578,16.537z"/>
	<path fill-rule="evenodd" clip-rule="evenodd" d="M44.527,26.738c-0.191,0.056-0.328,0.103-0.469,0.135
		c-2.512,0.571-5.024,1.134-7.532,1.719c-0.37,0.086-0.584,0.039-0.813-0.302c-1.998-2.972-4.02-5.929-6.033-8.891
		c-0.083-0.122-0.156-0.25-0.265-0.425c0.168-0.055,0.299-0.108,0.434-0.141c2.345-0.557,4.691-1.108,7.034-1.672
		c0.271-0.065,0.45-0.045,0.633,0.2c2.285,3.053,4.581,6.097,6.874,9.144C44.429,26.557,44.457,26.617,44.527,26.738z"/>
	<path fill-rule="evenodd" clip-rule="evenodd" d="M21.63,39.655c0.053-0.162,0.091-0.303,0.144-0.436
		c1.011-2.525,2.026-5.048,3.032-7.575c0.101-0.252,0.203-0.406,0.52-0.404c2.541,0.015,5.083,0.011,7.624,0.014
		c0.079,0,0.158,0.016,0.294,0.03c-0.237,0.592-0.462,1.154-0.687,1.716c-0.839,2.097-1.68,4.193-2.515,6.292
		c-0.096,0.241-0.182,0.414-0.513,0.412c-2.541-0.017-5.083-0.009-7.624-0.011C21.828,39.694,21.75,39.673,21.63,39.655z"/>
	<path fill-rule="evenodd" clip-rule="evenodd" d="M42.746,39.663c0.75-1.875,1.478-3.695,2.206-5.514
		c0.343-0.857,0.677-1.719,1.042-2.566c0.062-0.142,0.265-0.315,0.403-0.316c2.606-0.017,5.214-0.009,7.82-0.004
		c0.03,0,0.061,0.021,0.128,0.044c-0.035,0.12-0.06,0.246-0.106,0.362c-1.022,2.555-2.05,5.109-3.067,7.667
		c-0.096,0.238-0.199,0.369-0.492,0.367c-2.558-0.013-5.115-0.008-7.672-0.009C42.942,39.694,42.878,39.68,42.746,39.663z"/>
	<path fill-rule="evenodd" clip-rule="evenodd" d="M43.831,31.252c-0.279,0.698-0.523,1.307-0.768,1.916
		c-0.809,2.02-1.624,4.037-2.418,6.062c-0.131,0.336-0.284,0.479-0.671,0.477c-2.442-0.021-4.884-0.011-7.326-0.011
		c-0.13,0-0.26,0-0.467,0c0.07-0.202,0.116-0.351,0.174-0.495c0.998-2.494,2.003-4.986,2.989-7.485
		c0.133-0.336,0.286-0.478,0.672-0.474c2.425,0.021,4.85,0.01,7.276,0.01C43.439,31.252,43.586,31.252,43.831,31.252z"/>
</g>
</svg>
