<?xml version="1.0" encoding="utf-8"?>
<!-- Generator: Adobe Illustrator 16.0.0, SVG Export Plug-In . SVG Version: 6.00 Build 0)  -->
<!DOCTYPE svg PUBLIC "-//W3C//DTD SVG 1.1//EN" "http://www.w3.org/Graphics/SVG/1.1/DTD/svg11.dtd">
<svg version="1.1" id="Capa_1" xmlns="http://www.w3.org/2000/svg" xmlns:xlink="http://www.w3.org/1999/xlink" x="0px" y="0px"
	 width="75px" height="75px" viewBox="0 0 75 75" enable-background="new 0 0 75 75" xml:space="preserve">
<g>
	<path fill-rule="evenodd" clip-rule="evenodd" d="M12.358,34.641c0.065-0.181,0.133-0.361,0.196-0.542
		c0.447-1.299,1.452-2.023,2.822-2.03c0.277-0.001,0.555,0,0.926,0c0-0.333-0.002-0.636,0-0.939c0.016-1.672,1.166-2.897,2.84-2.994
		c0.603-0.035,1.209-0.006,1.892-0.006c0-0.575-0.003-1.092,0.001-1.61c0.011-1.338,0.731-2.41,1.93-2.874
		c1.26-0.488,2.716-0.18,3.586,0.768c0.562,0.611,0.798,1.34,0.795,2.165c-0.006,2.397-0.002,4.795-0.001,7.193
		c0,0.195,0,0.39,0,0.625c6.833,0,13.622,0,20.477,0c0.01-0.174,0.028-0.363,0.028-0.552c0.002-2.414,0.006-4.828,0-7.242
		c-0.003-1.243,0.49-2.213,1.597-2.792c1.152-0.603,2.32-0.547,3.411,0.174c0.834,0.551,1.266,1.361,1.298,2.365
		c0.019,0.569,0.004,1.139,0.004,1.771c0.483,0,0.906,0.013,1.328-0.002c1.863-0.067,3.549,1.29,3.409,3.41
		c-0.011,0.159,0.014,0.32,0.024,0.542c0.305,0,0.579,0,0.853,0c1.472,0.004,2.479,0.756,2.915,2.169
		c0.043,0.137,0.1,0.27,0.149,0.404c0,1.939,0,3.878,0,5.817c-0.06,0.186-0.119,0.371-0.18,0.556
		c-0.438,1.351-1.456,2.094-2.875,2.1c-0.275,0.002-0.551,0-0.874,0c0.146,3.379-1.888,4.146-4.748,3.922
		c0,0.577,0.004,1.081,0,1.586c-0.014,1.804-1.356,3.153-3.145,3.162c-1.778,0.008-3.152-1.344-3.162-3.144
		c-0.013-2.448-0.013-4.896,0.005-7.344c0.003-0.415-0.084-0.565-0.538-0.564c-6.489,0.016-12.979,0.015-19.468,0.002
		c-0.421-0.001-0.52,0.136-0.517,0.534c0.016,2.447,0.009,4.896,0.007,7.343c-0.001,1.31-0.58,2.287-1.76,2.846
		c-1.184,0.561-2.342,0.426-3.388-0.366c-0.748-0.567-1.14-1.346-1.159-2.292c-0.011-0.556-0.002-1.112-0.002-1.75
		c-0.478,0-0.916-0.026-1.349,0.005c-1.825,0.132-3.559-1.114-3.387-3.356c0.014-0.174,0.002-0.351,0.002-0.582
		c-0.316,0-0.574,0-0.832-0.001c-1.5-0.004-2.559-0.799-2.98-2.236c-0.041-0.141-0.088-0.279-0.132-0.419
		C12.358,38.519,12.358,36.58,12.358,34.641z M25.767,37.596c0-3.662-0.004-7.323,0.004-10.985c0.002-0.676-0.245-1.181-0.864-1.471
		c-1.129-0.529-2.292,0.212-2.292,1.465c-0.002,7.323-0.001,14.646-0.001,21.97c0,0.065-0.001,0.132,0.002,0.197
		c0.037,0.677,0.492,1.209,1.156,1.354c1.146,0.25,1.994-0.423,1.995-1.594C25.769,44.886,25.767,41.241,25.767,37.596z
		 M52.585,37.651c0-3.678,0.001-7.356-0.001-11.034c0-0.78-0.339-1.299-0.989-1.538c-1.109-0.406-2.162,0.326-2.162,1.519
		c-0.004,7.077-0.002,14.154-0.002,21.23c0,0.313-0.009,0.625,0.004,0.936c0.027,0.648,0.433,1.156,1.052,1.335
		c1.156,0.333,2.097-0.363,2.098-1.563C52.587,44.909,52.585,41.28,52.585,37.651z M37.648,36.01c-3.27,0-6.539,0.006-9.809-0.008
		c-0.387-0.002-0.519,0.105-0.502,0.499c0.029,0.688,0.037,1.381-0.001,2.069c-0.027,0.475,0.127,0.606,0.602,0.604
		c4.206-0.019,8.412-0.011,12.618-0.011c2.268,0,4.534-0.009,6.802,0.008c0.391,0.003,0.518-0.111,0.502-0.502
		c-0.027-0.706-0.034-1.414,0.002-2.119c0.022-0.438-0.118-0.554-0.553-0.551C44.089,36.018,40.868,36.01,37.648,36.01z
		 M20.993,45.467c0-5.278,0-10.503,0-15.737c-0.137-0.012-0.234-0.027-0.331-0.027c-0.476,0-0.953-0.017-1.428,0.01
		c-0.84,0.046-1.352,0.59-1.353,1.439c-0.004,4.285-0.004,8.57,0,12.856c0.001,0.853,0.502,1.403,1.342,1.453
		C19.796,45.494,20.371,45.467,20.993,45.467z M54.182,45.461c0.61,0,1.17,0.041,1.72-0.01c0.84-0.077,1.409-0.691,1.411-1.496
		c0.008-4.252,0.004-8.505,0.003-12.757c-0.001-0.673-0.344-1.192-0.96-1.34c-0.695-0.167-1.436-0.144-2.174-0.204
		C54.182,34.996,54.182,40.197,54.182,45.461z M16.27,33.645c-0.317,0-0.607-0.002-0.897,0.001
		c-0.667,0.007-1.084,0.285-1.293,0.919c-0.09,0.275-0.134,0.577-0.137,0.867c-0.013,1.426-0.011,2.853-0.004,4.279
		c0.006,1.325,0.526,1.813,1.852,1.83c0.413,0.005,0.524-0.12,0.521-0.526c-0.018-2.295-0.008-4.59-0.01-6.886
		C16.301,33.986,16.283,33.843,16.27,33.645z M58.944,33.653c0,2.661,0,5.255,0,7.878c0.327,0,0.605,0.003,0.883-0.001
		c0.666-0.01,1.081-0.293,1.294-0.925c0.082-0.244,0.131-0.512,0.133-0.77c0.013-1.509,0.024-3.019-0.007-4.527
		c-0.008-0.361-0.104-0.772-0.303-1.063c-0.181-0.266-0.533-0.482-0.852-0.57C59.744,33.578,59.349,33.653,58.944,33.653z"/>
</g>
</svg>
