<?xml version="1.0" encoding="utf-8"?>
<!-- Generator: Adobe Illustrator 16.0.0, SVG Export Plug-In . SVG Version: 6.00 Build 0)  -->
<!DOCTYPE svg PUBLIC "-//W3C//DTD SVG 1.1//EN" "http://www.w3.org/Graphics/SVG/1.1/DTD/svg11.dtd">
<svg version="1.1" id="Capa_1" xmlns="http://www.w3.org/2000/svg" xmlns:xlink="http://www.w3.org/1999/xlink" x="0px" y="0px"
	 width="75px" height="75px" viewBox="0 0 75 75" enable-background="new 0 0 75 75" xml:space="preserve">
<path fill-rule="evenodd" clip-rule="evenodd" d="M62.598,42.773c0,1.433,0,2.864,0,4.297c-0.026,0.039-0.069,0.074-0.078,0.116
	c-0.313,1.508-1.172,2.585-2.57,3.217c-0.272,0.123-0.284,0.304-0.283,0.541c0.005,1.382,0.012,2.764-0.002,4.146
	c-0.009,0.934-0.593,1.514-1.522,1.55c-0.293,0.012-0.586,0.009-0.878,0.016c-3.877,0.084-7.67,0.653-11.348,1.928
	c-2.827,0.979-5.425,2.4-7.928,4.015c-0.26,0-0.521,0-0.781,0c-0.273-0.168-0.551-0.33-0.82-0.505
	c-2.134-1.388-4.391-2.529-6.786-3.397c-4.007-1.452-8.159-2.021-12.401-2.054c-1.116-0.009-1.669-0.582-1.672-1.698
	c-0.004-1.334-0.01-2.667,0.005-4c0.003-0.304-0.091-0.454-0.375-0.581c-0.921-0.41-1.625-1.076-2.069-1.984
	c-0.204-0.416-0.33-0.87-0.492-1.308c0-1.433,0-2.864,0-4.297c0.026-0.039,0.068-0.075,0.077-0.118
	c0.312-1.509,1.18-2.567,2.559-3.241c0.147-0.072,0.278-0.341,0.281-0.521c0.024-1.317,0.011-2.634,0.014-3.952
	c0.002-1.176,0.57-1.742,1.731-1.737c2.64,0.013,5.262,0.231,7.858,0.708c0.292,0.054,0.479-0.004,0.691-0.199
	c1.387-1.269,2.975-2.198,4.765-2.779c0.114-0.037,0.221-0.099,0.448-0.202c-0.165-0.109-0.269-0.161-0.351-0.236
	c-5.576-5.185-3.886-14.346,3.187-17.161c0.879-0.35,1.84-0.497,2.763-0.738c0.651,0,1.302,0,1.953,0
	c0.411,0.083,0.827,0.147,1.233,0.25c3.942,1.004,6.577,3.447,7.648,7.36c1.072,3.917,0.033,7.358-2.861,10.221
	c-0.108,0.107-0.285,0.147-0.431,0.218c0.047,0.059,0.094,0.117,0.14,0.176c1.975,0.612,3.722,1.611,5.241,3.011
	c0.102,0.094,0.33,0.107,0.485,0.079c2.599-0.471,5.22-0.691,7.858-0.708c1.227-0.008,1.777,0.543,1.778,1.786
	c0.002,1.269,0.013,2.538-0.007,3.806c-0.006,0.351,0.077,0.546,0.424,0.701c0.92,0.414,1.61,1.098,2.043,2.012
	C62.319,41.914,62.443,42.352,62.598,42.773z M18.458,36.151c0,0.979,0.012,1.856-0.006,2.732c-0.006,0.302,0.092,0.455,0.371,0.589
	c1.441,0.689,2.333,1.836,2.503,3.423c0.117,1.094,0.062,2.208,0.059,3.313c-0.005,1.923-0.863,3.331-2.599,4.175
	c-0.241,0.117-0.34,0.246-0.333,0.513c0.018,0.585,0.005,1.172,0.005,1.757c0,1.09,0,1.084,1.108,1.137
	c5.693,0.271,11.073,1.677,16.079,4.438c0.133,0.074,0.276,0.131,0.488,0.229c0-0.249,0-0.407,0-0.566
	c0-5.353-0.005-10.704,0.01-16.057c0.001-0.397-0.138-0.607-0.462-0.808c-4.489-2.778-9.385-4.287-14.629-4.718
	C20.213,36.241,19.373,36.206,18.458,36.151z M39.095,58.484c2.737-1.545,5.552-2.704,8.517-3.485
	c2.978-0.785,6.017-1.154,9.127-1.273c0-0.969-0.014-1.861,0.007-2.753c0.007-0.32-0.094-0.477-0.395-0.621
	c-1.384-0.665-2.275-1.759-2.459-3.29c-0.126-1.043-0.057-2.109-0.084-3.165c-0.054-2.057,0.787-3.574,2.663-4.489
	c0.123-0.061,0.251-0.259,0.255-0.396c0.023-0.829,0.004-1.659,0.017-2.488c0.004-0.283-0.104-0.359-0.377-0.351
	c-6.051,0.198-11.732,1.661-16.904,4.896c-0.305,0.19-0.406,0.391-0.405,0.739c0.01,5.368,0.007,10.736,0.008,16.105
	C39.063,58.068,39.08,58.224,39.095,58.484z M30.275,22.919c-0.008,4.05,3.266,7.344,7.306,7.352c4.023,0.007,7.32-3.26,7.337-7.271
	c0.02-4.116-3.254-7.461-7.306-7.468C33.578,15.524,30.283,18.842,30.275,22.919z M29.133,34.851
	c0.153,0.067,0.207,0.098,0.265,0.116c2.788,0.884,5.429,2.091,7.908,3.644c0.292,0.183,0.479,0.062,0.704-0.076
	c2.406-1.482,4.952-2.66,7.648-3.513c0.115-0.036,0.221-0.101,0.39-0.18c-1.316-0.859-2.693-1.465-4.18-1.516
	c-2.84-0.097-5.687-0.096-8.527-0.001C31.852,33.375,30.475,33.983,29.133,34.851z M18.455,44.914c0-0.472,0.012-0.943-0.002-1.414
	c-0.027-0.875-0.652-1.509-1.467-1.505c-0.812,0.003-1.439,0.644-1.454,1.518c-0.015,0.942-0.017,1.886,0.001,2.828
	c0.016,0.875,0.651,1.511,1.465,1.506c0.815-0.005,1.43-0.64,1.455-1.52C18.466,45.856,18.455,45.385,18.455,44.914z M59.666,44.93
	c0-0.471,0.01-0.942-0.002-1.413c-0.023-0.877-0.64-1.517-1.452-1.521c-0.813-0.006-1.451,0.63-1.468,1.502
	c-0.018,0.942-0.016,1.885-0.001,2.827c0.015,0.879,0.636,1.516,1.45,1.522c0.814,0.006,1.442-0.628,1.47-1.503
	C59.678,45.873,59.666,45.401,59.666,44.93z"/>
</svg>
