<?xml version="1.0" encoding="utf-8"?>
<!-- Generator: Adobe Illustrator 16.0.0, SVG Export Plug-In . SVG Version: 6.00 Build 0)  -->
<!DOCTYPE svg PUBLIC "-//W3C//DTD SVG 1.1//EN" "http://www.w3.org/Graphics/SVG/1.1/DTD/svg11.dtd">
<svg version="1.1" id="Capa_1" xmlns="http://www.w3.org/2000/svg" xmlns:xlink="http://www.w3.org/1999/xlink" x="0px" y="0px"
	 width="75px" height="75px" viewBox="0 0 75 75" enable-background="new 0 0 75 75" xml:space="preserve">
<g>
	<path fill-rule="evenodd" clip-rule="evenodd" fill="#FEFEFE" d="M20.914,12.621c13.74,0,27.48,0.001,41.22-0.009
		c0.366,0,0.449,0.083,0.448,0.448c-0.011,16.358-0.011,32.716,0,49.074c0.001,0.366-0.082,0.452-0.448,0.449
		c-2.553-0.019-5.105-0.01-7.658-0.01c-0.026-0.065-0.053-0.13-0.079-0.195c0.011-0.112,0.031-0.225,0.031-0.337
		c0.001-16.268-0.001-32.535,0.01-48.803c0-0.411-0.124-0.506-0.52-0.504c-3.526,0.015-7.053,0.007-10.579,0.01
		c-0.692,0-0.62-0.09-0.62,0.628c-0.003,7.557-0.002,15.114-0.001,22.671c0,0.145,0.02,0.29,0.03,0.436
		c-0.213-0.082-0.235-0.294-0.313-0.464c-1.592-3.503-3.18-7.009-4.769-10.514c-1.867-4.156-3.738-8.311-5.592-12.473
		c-0.136-0.306-0.338-0.287-0.582-0.287c-3.333,0.002-6.666,0.003-9.999-0.003C21.299,12.737,21.074,12.822,20.914,12.621z"/>
	<path fill-rule="evenodd" clip-rule="evenodd" fill="#D4011D" d="M21.597,62.573c-0.292,0-0.585,0-0.878,0
		c0.09-0.203,0.044-0.417,0.044-0.625c0.002-16.103,0.002-32.204,0.003-48.306c0-0.21,0.021-0.42,0.032-0.629
		c0.166,0.079,0.195,0.253,0.261,0.395c0.3,0.646,0.586,1.298,0.881,1.947c1.005,2.211,2.017,4.42,3.018,6.633
		c1.307,2.892,2.602,5.789,3.909,8.681c1,2.213,2.028,4.415,3.005,6.638c0.224,0.509,0.605,0.975,0.573,1.582
		c0.009,0.194,0.026,0.388,0.026,0.582c0.001,7.048,0.001,14.096,0.001,21.144c0,0.716,0,0.724-0.72,0.768
		c-2.836,0.173-5.658,0.483-8.465,0.922C22.725,62.391,22.143,62.377,21.597,62.573z"/>
	<path fill-rule="evenodd" clip-rule="evenodd" fill="#FEFEFE" d="M20.798,13.013c-0.011,0.209-0.032,0.419-0.032,0.629
		c-0.001,16.102-0.001,32.204-0.003,48.306c0,0.208,0.046,0.422-0.044,0.625c-2.569,0-5.138-0.008-7.708,0.01
		c-0.334,0.002-0.4-0.066-0.399-0.4c0.011-15.594,0.009-31.188,0.009-46.781c0-0.829,0.011-1.659-0.007-2.487
		c-0.005-0.245,0.056-0.3,0.299-0.299c2.602,0.01,5.204,0.006,7.805,0.006C20.745,12.751,20.771,12.882,20.798,13.013z"/>
	<path fill-rule="evenodd" clip-rule="evenodd" fill="#FD0424" d="M20.798,13.013c-0.026-0.131-0.053-0.261-0.079-0.392
		c0.065,0,0.13,0,0.195,0c0.16,0.201,0.385,0.116,0.58,0.116c3.333,0.006,6.666,0.005,9.999,0.003c0.244,0,0.446-0.02,0.582,0.287
		c1.854,4.162,3.725,8.317,5.592,12.473c-0.125,0.177-0.067,0.379-0.067,0.568c-0.005,7.943-0.006,15.887-0.008,23.829
		c-0.04-0.068-0.085-0.134-0.117-0.205c-1.577-3.48-3.151-6.962-4.733-10.439c-0.063-0.137-0.033-0.379-0.295-0.365
		c0.032-0.606-0.35-1.073-0.573-1.582c-0.978-2.224-2.005-4.425-3.005-6.638c-1.307-2.892-2.602-5.789-3.909-8.681
		c-1-2.213-2.012-4.422-3.018-6.633c-0.295-0.648-0.581-1.301-0.881-1.947C20.993,13.266,20.964,13.091,20.798,13.013z"/>
	<path fill-rule="evenodd" clip-rule="evenodd" fill="#D40520" d="M37.591,49.897c0.002-7.942,0.003-15.886,0.008-23.829
		c0-0.189-0.057-0.391,0.067-0.568c1.589,3.505,3.177,7.01,4.769,10.514c0.077,0.17,0.1,0.383,0.313,0.464
		c0.029,0.157,0.03,0.327,0.094,0.469c0.481,1.081,0.975,2.156,1.464,3.233c0.999,2.198,2.003,4.395,2.997,6.595
		c1.335,2.952,2.665,5.907,3.995,8.862c0.685,1.521,1.35,3.053,2.054,4.565c0.339,0.729,0.603,1.496,1.045,2.176
		c0.026,0.065,0.053,0.13,0.079,0.195c-0.358,0-0.716,0-1.073,0c-0.032-0.03-0.062-0.083-0.097-0.088
		c-0.964-0.139-1.928-0.271-2.892-0.406c-2.396-0.336-4.802-0.575-7.218-0.705c-0.355-0.02-0.53-0.156-0.672-0.484
		c-0.626-1.441-1.287-2.866-1.932-4.3C39.591,54.36,38.592,52.129,37.591,49.897z"/>
	<path fill-rule="evenodd" clip-rule="evenodd" fill="#FEFDFD" d="M37.591,49.897c1,2.231,2,4.463,3.001,6.692
		c0.645,1.434,1.306,2.858,1.932,4.3c0.142,0.328,0.316,0.465,0.672,0.484c2.416,0.13,4.822,0.369,7.218,0.705
		c0.964,0.136,1.928,0.268,2.892,0.406c0.035,0.005,0.064,0.058,0.097,0.088c-10.602,0-21.204,0-31.806,0
		c0.546-0.196,1.128-0.183,1.691-0.271c2.807-0.438,5.628-0.749,8.465-0.922c0.721-0.044,0.72-0.052,0.72-0.768
		c0-7.048,0-14.096-0.001-21.144c0-0.194-0.017-0.388-0.026-0.582c0.263-0.014,0.233,0.229,0.295,0.365
		c1.583,3.478,3.157,6.959,4.733,10.439C37.506,49.764,37.552,49.829,37.591,49.897z"/>
	<path fill-rule="evenodd" clip-rule="evenodd" fill="#A9011A" d="M54.396,62.378c-0.442-0.68-0.706-1.447-1.045-2.176
		c-0.704-1.513-1.369-3.044-2.054-4.565c-1.33-2.955-2.66-5.91-3.995-8.862c-0.994-2.2-1.998-4.396-2.997-6.595
		c-0.489-1.077-0.982-2.152-1.464-3.233c-0.063-0.142-0.064-0.312-0.094-0.469c-0.011-0.145-0.03-0.29-0.03-0.435
		c-0.001-7.557-0.002-15.114,0.001-22.671c0-0.718-0.072-0.627,0.62-0.628c3.526-0.002,7.053,0.005,10.579-0.01
		c0.396-0.002,0.52,0.094,0.52,0.504c-0.011,16.268-0.009,32.535-0.01,48.803C54.428,62.153,54.407,62.266,54.396,62.378z"/>
</g>
</svg>
