<?xml version="1.0" encoding="utf-8"?>
<!-- Generator: Adobe Illustrator 16.0.0, SVG Export Plug-In . SVG Version: 6.00 Build 0)  -->
<!DOCTYPE svg PUBLIC "-//W3C//DTD SVG 1.1//EN" "http://www.w3.org/Graphics/SVG/1.1/DTD/svg11.dtd">
<svg version="1.1" id="Capa_1" xmlns="http://www.w3.org/2000/svg" xmlns:xlink="http://www.w3.org/1999/xlink" x="0px" y="0px"
	 width="75px" height="75px" viewBox="0 0 75 75" enable-background="new 0 0 75 75" xml:space="preserve">
<g>
	<path fill-rule="evenodd" clip-rule="evenodd" d="M63.215,35.899c-0.054,0.136-0.114,0.27-0.162,0.408
		c-0.416,1.194-1.45,2.017-2.708,2.023c-4.118,0.022-8.237,0.029-12.355-0.001c-1.609-0.012-2.831-1.311-2.88-2.943
		c-0.017-0.542-0.003-1.085-0.003-1.599c-1.549,1.556-3.08,3.094-4.644,4.664c0.046,0.049,0.166,0.182,0.293,0.309
		c2.086,2.088,4.175,4.173,6.26,6.263c1.466,1.47,1.469,3.197,0.003,4.665c-3.37,3.374-6.749,6.74-10.113,10.12
		c-0.843,0.847-1.822,1.234-2.994,0.962c-2.27-0.527-3.087-3.276-1.477-4.972c0.965-1.015,1.975-1.986,2.965-2.977
		c1.685-1.688,3.371-3.374,5.056-5.062c0.116-0.117,0.228-0.239,0.381-0.4c-0.145-0.152-0.273-0.296-0.409-0.433
		c-2.085-2.089-4.172-4.176-6.256-6.266c-1.444-1.447-1.446-3.177-0.001-4.622c3.89-3.893,7.781-7.783,11.673-11.673
		c1.025-1.024,2.212-1.303,3.419-0.771c1.266,0.559,1.852,1.564,1.848,2.937c-0.005,1.734-0.001,3.468-0.001,5.203
		c0,0.18,0,0.359,0,0.607c0.247,0,0.441,0,0.635,0c2.568,0,5.137,0,7.704,0c2.231,0,2.922,0.45,3.768,2.457
		C63.215,35.166,63.215,35.532,63.215,35.899z"/>
	<path fill-rule="evenodd" clip-rule="evenodd" d="M11.985,25.993c0.343-0.853,0.975-1.168,1.886-1.154
		c2.298,0.035,4.597,0.009,6.896,0.015c0.264,0,0.54,0.006,0.791,0.078c0.655,0.189,1.083,0.857,1.027,1.538
		c-0.056,0.679-0.589,1.253-1.271,1.347c-0.229,0.032-0.465,0.024-0.698,0.025c-2.232,0.001-4.465-0.024-6.696,0.013
		c-0.925,0.015-1.583-0.283-1.934-1.161C11.985,26.46,11.985,26.227,11.985,25.993z"/>
	<path fill-rule="evenodd" clip-rule="evenodd" d="M30.31,39.913c0.329,1.054,0.796,1.928,1.515,2.649
		c0.704,0.706,1.415,1.404,2.143,2.127c-0.134,0.151-0.224,0.266-0.326,0.367c-4.926,4.926-9.852,9.852-14.78,14.773
		c-1.274,1.271-3.082,1.364-4.305,0.233c-1.172-1.083-1.294-2.88-0.275-4.112c0.127-0.153,0.271-0.294,0.412-0.436
		c5.065-5.068,10.131-10.137,15.197-15.205C30.006,40.195,30.128,40.085,30.31,39.913z"/>
	<path fill-rule="evenodd" clip-rule="evenodd" d="M45.525,20.923c-1.896,1.016-3.048,2.763-4.623,4.083
		c-0.719-0.511-1.433-1.019-2.163-1.539c-0.158,0.15-0.292,0.272-0.421,0.4c-2.004,2.001-4.003,4.008-6.013,6.005
		c-1.083,1.075-2.578,1.268-3.794,0.516c-1.588-0.983-1.9-3.156-0.63-4.553c0.571-0.628,1.191-1.212,1.792-1.813
		c2.12-2.121,4.241-4.243,6.363-6.362c1.293-1.29,2.736-1.424,4.233-0.392c1.605,1.106,3.208,2.216,4.812,3.325
		C45.215,20.687,45.344,20.788,45.525,20.923z"/>
	<path fill-rule="evenodd" clip-rule="evenodd" d="M52.626,14.351c2.508,0.009,4.503,2.026,4.481,4.531
		c-0.021,2.472-2.052,4.478-4.514,4.461c-2.499-0.017-4.504-2.049-4.483-4.543C48.131,16.319,50.138,14.343,52.626,14.351z"/>
	<path fill-rule="evenodd" clip-rule="evenodd" d="M20.268,33.851c-1.199,0-2.397,0.005-3.596-0.001
		c-1.003-0.005-1.69-0.631-1.682-1.515c0.008-0.867,0.681-1.492,1.655-1.496c2.43-0.01,4.86-0.01,7.291,0
		c0.982,0.004,1.646,0.621,1.653,1.493c0.007,0.896-0.665,1.512-1.676,1.518C22.698,33.856,21.483,33.851,20.268,33.851z"/>
	<path fill-rule="evenodd" clip-rule="evenodd" d="M20.295,21.831c-1.284,0-2.568,0.02-3.852-0.007
		c-0.735-0.015-1.271-0.5-1.419-1.186c-0.14-0.646,0.179-1.338,0.793-1.626c0.233-0.109,0.511-0.17,0.77-0.171
		c2.468-0.013,4.936-0.014,7.403-0.004c0.939,0.003,1.596,0.637,1.598,1.499c0.002,0.863-0.641,1.486-1.592,1.499
		c-1.234,0.017-2.468,0.004-3.702,0.004C20.295,21.835,20.295,21.833,20.295,21.831z"/>
</g>
</svg>
