<?xml version="1.0" encoding="utf-8"?>
<!-- Generator: Adobe Illustrator 16.0.0, SVG Export Plug-In . SVG Version: 6.00 Build 0)  -->
<!DOCTYPE svg PUBLIC "-//W3C//DTD SVG 1.1//EN" "http://www.w3.org/Graphics/SVG/1.1/DTD/svg11.dtd">
<svg version="1.1" id="Capa_1" xmlns="http://www.w3.org/2000/svg" xmlns:xlink="http://www.w3.org/1999/xlink" x="0px" y="0px"
	 width="75px" height="75px" viewBox="0 0 75 75" enable-background="new 0 0 75 75" xml:space="preserve">
<g>
	<path fill-rule="evenodd" clip-rule="evenodd" d="M62.878,46.486c0,0.625,0,1.251,0,1.876c-0.034,0.141-0.081,0.279-0.101,0.422
		c-0.44,3.141-2.658,4.857-5.798,4.419c-2.137-0.299-3.661-1.556-4.759-3.345c-0.868-1.415-1.668-2.873-2.499-4.311
		c-0.089-0.154-0.186-0.303-0.265-0.432c-0.733,0.417-1.405,0.866-2.131,1.2c-2.313,1.064-4.535,0.566-6.188-1.362
		c-0.362-0.422-0.68-0.889-0.969-1.364c-0.157-0.26-0.318-0.359-0.62-0.354c-1.102,0.018-2.208,0.06-3.305-0.012
		c-0.729-0.047-1.211,0.135-1.498,0.828c-0.104,0.251-0.31,0.464-0.487,0.679c-1.878,2.268-4.276,2.746-6.874,1.355
		c-0.547-0.293-1.062-0.648-1.626-0.996c-0.095,0.152-0.192,0.302-0.281,0.455c-0.832,1.438-1.629,2.896-2.499,4.311
		c-1.16,1.887-2.781,3.167-5.05,3.386c-2.284,0.222-4.47-0.713-5.261-3.398c-0.143-0.485-0.233-0.986-0.348-1.48
		c0-0.625,0-1.251,0-1.876c0.045-0.273,0.1-0.546,0.135-0.82c0.516-3.978,1.042-7.954,1.539-11.934
		c0.319-2.555,1.208-4.815,3.262-6.479c0.422-0.342,0.647-0.721,0.796-1.233c0.327-1.123,0.321-2.378,1.414-3.211
		c0.306-0.232,0.553-0.521,0.941-0.617c1.263-0.313,2.538-0.386,3.811-0.092c0.53,0.123,1.2,0.074,1.345,0.841
		c0.009,0.048,0.095,0.086,0.151,0.121c0.673,0.418,1.034,1.031,1.157,1.808c0.059,0.373,0.198,0.734,0.241,1.108
		c0.054,0.473,0.269,0.6,0.742,0.599c6.218-0.017,12.437-0.011,18.655-0.011c0.362,0,0.725-0.012,1.086,0.003
		c0.264,0.011,0.383-0.099,0.434-0.354c0.096-0.484,0.239-0.959,0.321-1.445c0.123-0.728,0.492-1.275,1.094-1.688
		c0.11-0.077,0.17-0.225,0.269-0.324c0.162-0.163,0.312-0.391,0.511-0.457c1.289-0.426,2.602-0.407,3.947-0.264
		c1.08,0.115,1.64,0.842,2.264,1.535c0.133,0.148,0.186,0.382,0.241,0.585c0.207,0.762,0.386,1.532,0.608,2.289
		c0.06,0.204,0.198,0.422,0.365,0.549c1.992,1.523,3.088,3.572,3.436,6.01c0.508,3.564,0.94,7.138,1.408,10.708
		C62.613,44.64,62.749,45.563,62.878,46.486z M49.012,40.554c0.005-1.946-1.56-3.521-3.507-3.527
		c-1.933-0.007-3.527,1.578-3.534,3.51c-0.007,1.922,1.583,3.518,3.517,3.529C47.419,44.078,49.006,42.497,49.012,40.554z
		 M33.25,40.554c0.004-1.939-1.571-3.522-3.511-3.527c-1.946-0.005-3.518,1.563-3.521,3.511c-0.003,1.945,1.567,3.525,3.506,3.529
		C31.659,44.069,33.247,42.488,33.25,40.554z M52.841,35.111c-1.252,0.002-2.261,1.009-2.257,2.251
		c0.004,1.245,1.015,2.244,2.268,2.242c1.254-0.002,2.254-1.002,2.251-2.253C55.1,36.099,54.099,35.108,52.841,35.111z
		 M54.658,33.261c-0.016,1.263,0.956,2.274,2.206,2.297c1.245,0.022,2.269-0.97,2.288-2.219c0.02-1.255-0.959-2.271-2.21-2.294
		C55.692,31.023,54.673,32.011,54.658,33.261z M52.881,31.492c1.25-0.014,2.238-1.029,2.222-2.282
		c-0.018-1.25-1.033-2.234-2.29-2.217c-1.246,0.017-2.253,1.049-2.228,2.285C50.609,30.528,51.624,31.506,52.881,31.492z
		 M51.041,33.307c0.003-1.252-0.994-2.257-2.244-2.262s-2.252,0.996-2.254,2.249c-0.002,1.256,0.993,2.262,2.241,2.265
		C50.03,35.562,51.037,34.557,51.041,33.307z M18.814,35.331c0.31-0.036,0.619-0.099,0.929-0.104
		c1.022-0.016,1.514-0.747,2.011-1.469c0.055-0.079,0.077-0.254,0.028-0.319c-0.435-0.583-0.761-1.305-1.587-1.445
		c-0.501-0.085-1.009-0.142-1.516-0.174c-0.562-0.036-0.904,0.182-0.989,0.742c-0.089,0.593-0.11,1.212-0.048,1.808
		C17.721,35.115,18.055,35.336,18.814,35.331z M26.953,33.576c-0.066-0.386-0.061-0.806-0.22-1.147
		c-0.119-0.254-0.444-0.567-0.691-0.579c-1.278-0.063-2.508,0.059-3.23,1.372c-0.15,0.273-0.158,0.451,0.011,0.707
		c0.528,0.799,1.195,1.268,2.205,1.349C26.559,35.401,26.904,35.146,26.953,33.576z M22.248,38.274
		c0.386-0.066,0.796-0.074,1.148-0.221c0.234-0.098,0.502-0.371,0.554-0.608c0.29-1.337-0.265-2.593-1.435-3.323
		c-0.136-0.085-0.414-0.081-0.556,0.001c-0.836,0.488-1.347,1.165-1.433,2.196C20.397,37.882,20.661,38.229,22.248,38.274z
		 M22.237,28.855c-0.387,0.066-0.802,0.065-1.149,0.219c-0.243,0.108-0.542,0.416-0.559,0.652c-0.091,1.304,0.051,2.541,1.374,3.277
		c0.249,0.139,0.413,0.169,0.661,0.005c0.794-0.526,1.293-1.174,1.385-2.187C24.091,29.271,23.818,28.902,22.237,28.855z
		 M37.618,40.994c1.634-0.011,2.948-1.334,2.935-2.96c-0.011-1.631-1.333-2.932-2.972-2.924c-1.631,0.007-2.945,1.333-2.936,2.959
		C34.655,39.695,35.985,41.005,37.618,40.994z M33.001,32.563c-1.421,0-1.494,0.069-1.384,1.225
		c0.032,0.335,0.192,0.514,0.528,0.517c0.557,0.004,1.117,0.036,1.669-0.018c0.183-0.018,0.485-0.257,0.492-0.406
		c0.061-1.288,0.135-1.36-1.06-1.317C33.165,32.566,33.083,32.563,33.001,32.563z M40.766,33.34c0.001,0,0.002,0,0.002,0
		c0,0.198-0.061,0.424,0.017,0.584c0.082,0.17,0.327,0.417,0.444,0.389c0.765-0.183,1.518-0.421,2.266-0.67
		c0.103-0.034,0.218-0.229,0.211-0.342c-0.006-0.104-0.153-0.253-0.267-0.287c-0.709-0.21-1.423-0.403-2.141-0.582
		c-0.324-0.081-0.5,0.097-0.529,0.414C40.754,33.01,40.766,33.175,40.766,33.34z M33.127,30.29c0.476,0.022,0.886,0.09,1.28,0.039
		c0.188-0.024,0.348-0.274,0.521-0.422c-0.18-0.159-0.335-0.374-0.544-0.463c-0.252-0.107-0.55-0.107-0.951-0.173
		c0.585-0.393,0.972-0.149,1.398,0.069c-0.016-0.157-0.056-0.369-0.131-0.382c-0.351-0.062-0.719-0.124-1.064-0.073
		c-0.191,0.028-0.349,0.279-0.521,0.43c0.178,0.137,0.336,0.323,0.537,0.397c0.271,0.101,0.575,0.115,0.865,0.166
		c-0.502,0.459-0.914,0.224-1.351-0.123C33.15,29.967,33.141,30.106,33.127,30.29z M37.598,30.287c0.264,0,0.477,0,0.613,0
		c-0.043-0.266-0.082-0.505-0.132-0.811c0.573,0.213,0.778,0.836,1.343,0.833c0.071-0.483,0.134-0.906,0.195-1.328
		c-0.172,0-0.404,0-0.587,0c0.07,0.23,0.135,0.441,0.234,0.769c-0.631-0.32-0.92-1.065-1.671-0.743
		C37.872,29.351,37.882,29.854,37.598,30.287z M36.203,30.428c0.214-0.044,0.414-0.028,0.524-0.12
		c0.234-0.195,0.539-0.42,0.599-0.682c0.086-0.379-0.25-0.669-0.604-0.704c-0.384-0.038-0.827-0.015-1.164,0.146
		c-0.484,0.232-0.458,0.823,0.004,1.113C35.762,30.307,36.011,30.356,36.203,30.428z M40.613,30.282c0.301,0,0.548,0,0.888,0
		c-0.428-0.311-0.201-0.503-0.016-0.726c0.17-0.204,0.304-0.438,0.453-0.66c0.035,0.025,0.07,0.05,0.105,0.076
		c-0.22,0-0.439,0-0.598,0c-0.109,0.211-0.2,0.386-0.291,0.562c-0.049-0.008-0.097-0.017-0.146-0.025
		c-0.072-0.18-0.146-0.36-0.213-0.525c-0.271,0-0.539,0-0.853,0C40.658,29.614,40.978,29.851,40.613,30.282z"/>
	<path fill-rule="evenodd" clip-rule="evenodd" d="M45.48,43.527c-1.645-0.008-2.963-1.339-2.961-2.988
		c0.003-1.673,1.347-3,3.021-2.98c1.643,0.019,2.958,1.366,2.942,3.015C48.467,42.218,47.129,43.534,45.48,43.527z"/>
	<path fill-rule="evenodd" clip-rule="evenodd" d="M29.72,43.527c-1.64-0.002-2.977-1.342-2.976-2.981
		c0-1.646,1.326-2.979,2.973-2.987c1.662-0.009,3.022,1.354,3.003,3.008C32.702,42.208,31.363,43.529,29.72,43.527z"/>
	<path fill-rule="evenodd" clip-rule="evenodd" d="M54.576,37.357c-0.001,0.947-0.78,1.723-1.73,1.723
		c-0.952,0-1.723-0.771-1.722-1.725c0.001-0.954,0.772-1.725,1.725-1.725C53.798,35.631,54.576,36.41,54.576,37.357z"/>
	<path fill-rule="evenodd" clip-rule="evenodd" d="M56.914,35.027c-0.95,0.005-1.729-0.764-1.735-1.716
		c-0.008-0.949,0.765-1.73,1.714-1.735c0.954-0.005,1.729,0.76,1.734,1.714C58.633,34.244,57.865,35.021,56.914,35.027z"/>
	<path fill-rule="evenodd" clip-rule="evenodd" d="M54.575,29.266c-0.011,0.945-0.807,1.72-1.751,1.706
		c-0.951-0.015-1.709-0.796-1.699-1.751c0.009-0.955,0.788-1.713,1.745-1.7C53.825,27.534,54.587,28.313,54.575,29.266z"/>
	<path fill-rule="evenodd" clip-rule="evenodd" d="M48.804,35.027c-0.953,0.006-1.728-0.758-1.735-1.713
		c-0.008-0.954,0.757-1.732,1.708-1.738c0.954-0.005,1.732,0.759,1.74,1.711C50.525,34.237,49.754,35.021,48.804,35.027z"/>
	<path fill-rule="evenodd" clip-rule="evenodd" d="M18.083,33.565c0.018-1.196,0.173-1.297,1.37-1.166
		c0.706,0.078,1.266,0.316,1.614,0.944c0.062,0.111,0.08,0.314,0.019,0.415c-0.453,0.74-1.75,1.253-2.574,1.011
		c-0.136-0.04-0.279-0.229-0.321-0.377C18.115,34.127,18.115,33.842,18.083,33.565z"/>
	<path fill-rule="evenodd" clip-rule="evenodd" d="M26.392,33.561c-0.017,1.213-0.094,1.265-1.304,1.177
		c-0.718-0.053-1.316-0.271-1.666-0.937c-0.061-0.117-0.093-0.315-0.036-0.416c0.423-0.741,1.813-1.276,2.62-1.006
		c0.123,0.041,0.248,0.217,0.283,0.354C26.356,33,26.361,33.284,26.392,33.561z"/>
	<path fill-rule="evenodd" clip-rule="evenodd" d="M22.14,34.547c1.025,0.608,1.54,1.705,1.306,2.719
		c-0.033,0.144-0.252,0.336-0.398,0.347c-0.536,0.042-1.078,0.037-1.616,0.01c-0.313-0.015-0.457-0.227-0.415-0.547
		c0.064-0.488,0.028-1.02,0.219-1.452C21.422,35.205,21.84,34.89,22.14,34.547z"/>
	<path fill-rule="evenodd" clip-rule="evenodd" d="M22.372,32.567c-1.343-0.548-1.32-1.624-1.337-2.662
		c-0.002-0.129,0.219-0.365,0.35-0.375c0.566-0.042,1.138-0.04,1.705-0.011c0.295,0.015,0.41,0.242,0.374,0.529
		c-0.061,0.487-0.029,1.017-0.218,1.449C23.063,31.918,22.652,32.24,22.372,32.567z"/>
	<path fill-rule="evenodd" clip-rule="evenodd" d="M40.279,38.077c-0.01,1.47-1.21,2.663-2.68,2.665
		c-1.485,0.001-2.69-1.218-2.681-2.713c0.009-1.475,1.201-2.658,2.679-2.658C39.096,35.371,40.289,36.575,40.279,38.077z
		 M37.788,36.797c0.083-0.004,0.165-0.008,0.247-0.012c0,0.324-0.014,0.649,0.008,0.972c0.008,0.11,0.086,0.279,0.168,0.305
		c0.121,0.038,0.323,0.02,0.402-0.062c0.114-0.117,0.195-0.306,0.211-0.472c0.075-0.799-0.721-1.376-1.801-1.276
		c0,0.829,0.004,1.664-0.002,2.499c-0.004,0.592,0.083,0.682,0.767,0.675C37.788,38.551,37.788,37.674,37.788,36.797z
		 M38.992,38.475c-0.754,0.564-1.054,0.788-1.042,0.979c0.628-0.265,1.315-0.336,1.859-0.801c-0.412-0.418-1.379-0.582-1.772-0.312
		c-0.088,0.061-0.1,0.233-0.177,0.433C38.318,38.653,38.655,38.563,38.992,38.475z M36.856,38.062
		c-0.441,0.166-0.856,0.305-1.255,0.479c-0.209,0.092-0.265,0.325-0.023,0.394c0.384,0.108,0.795,0.124,1.197,0.155
		c0.042,0.004,0.097-0.145,0.194-0.301c-0.324,0.027-0.542,0.046-0.784,0.065C36.356,38.496,36.997,38.71,36.856,38.062z"/>
	<path fill-rule="evenodd" clip-rule="evenodd" d="M33.942,33.74c-0.709,0-1.209,0-1.745,0c0-0.201,0-0.386,0-0.646
		c0.459,0,0.929-0.037,1.386,0.024C33.704,33.135,33.784,33.453,33.942,33.74z"/>
	<path fill-rule="evenodd" clip-rule="evenodd" d="M41.31,33.778c0-0.298,0-0.504,0-0.785c0.418,0.108,0.796,0.205,1.175,0.303
		c0.002,0.037,0.005,0.074,0.007,0.111C42.121,33.523,41.75,33.64,41.31,33.778z"/>
	<path fill-rule="evenodd" clip-rule="evenodd" d="M36.26,30.154c-0.342-0.036-0.63-0.167-0.621-0.555
		c0.009-0.354,0.275-0.515,0.603-0.517c0.34-0.002,0.637,0.135,0.647,0.522C36.901,30.002,36.593,30.108,36.26,30.154z"/>
</g>
</svg>
