<?xml version="1.0" encoding="utf-8"?>
<!-- Generator: Adobe Illustrator 24.0.1, SVG Export Plug-In . SVG Version: 6.00 Build 0)  -->
<svg version="1.1" id="Layer_1" xmlns="http://www.w3.org/2000/svg" xmlns:xlink="http://www.w3.org/1999/xlink" x="0px" y="0px"
	 viewBox="0 0 1080 1080" style="enable-background:new 0 0 1080 1080;" xml:space="preserve">
<style type="text/css">
	.st0{fill:#F3EAEB;}
	.st1{fill:#2596DC;}
	.st2{fill:#F2EFEF;}
	.st3{fill:none;stroke:#FFFFFF;stroke-width:0.4512;stroke-miterlimit:10;}
	.st4{clip-path:url(#SVGID_2_);}
	.st5{fill:#FFECD6;}
	.st6{opacity:0.3;fill:#2596DC;}
	.st7{fill-rule:evenodd;clip-rule:evenodd;fill:#2596DC;}
	.st8{fill-rule:evenodd;clip-rule:evenodd;fill:#F3EAEB;}
</style>
<g>
	<circle class="st0" cx="541.96" cy="536.29" r="522.72"/>
	<g>
		<path class="st1" d="M951.89,534.75c0,19.02-15.42,34.45-34.44,34.45H166.48c-19.03,0-34.45-15.43-34.45-34.45l0,0
			c0-19.03,15.42-34.44,34.45-34.44h750.97C936.47,500.3,951.89,515.71,951.89,534.75L951.89,534.75z"/>
		<g>
			<path class="st1" d="M331.41,645.31c0,26.26-21.28,47.54-47.54,47.54l0,0c-26.25,0-47.54-21.29-47.54-47.54V417.97
				c0-26.24,21.29-47.54,47.54-47.54l0,0c26.25,0,47.54,21.3,47.54,47.54V645.31z"/>
		</g>
		<g>
			<path class="st1" d="M452.98,651.51c-7.78,26.26-29.06,47.54-55.31,47.54l0,0c-26.26,0-47.53-21.29-47.53-47.54V424.17
				c0-26.24,21.28-47.53,47.53-47.53l0,0c26.25,0,47.53,21.29,55.31,47.53V651.51z"/>
		</g>
		<g>
			<path class="st1" d="M765.44,648.41c0,26.26-21.28,47.54-47.54,47.54l0,0c-26.25,0-47.53-21.29-47.53-47.54V421.07
				c0-26.24,21.28-47.53,47.53-47.53l0,0c26.26,0,47.54,21.29,47.54,47.53V648.41z"/>
		</g>
		<g>
			<path class="st1" d="M877.37,654.62c0,26.24-21.28,47.53-47.53,47.53l0,0c-26.25,0-47.53-21.29-47.53-47.53V427.27
				c0-26.24,21.28-47.53,47.53-47.53l0,0c26.25,0,47.53,21.29,47.53,47.53V654.62z"/>
		</g>
	</g>
</g>
</svg>
