<?xml version="1.0" encoding="utf-8"?>
<!-- Generator: Adobe Illustrator 24.0.1, SVG Export Plug-In . SVG Version: 6.00 Build 0)  -->
<svg version="1.1" id="Layer_1" xmlns="http://www.w3.org/2000/svg" xmlns:xlink="http://www.w3.org/1999/xlink" x="0px" y="0px"
	 viewBox="0 0 1080 1080" style="enable-background:new 0 0 1080 1080;" xml:space="preserve">
<style type="text/css">
	.st0{fill:#F3EAEB;}
	.st1{fill:#2596DC;}
	.st2{fill:#F2EFEF;}
	.st3{fill:none;stroke:#FFFFFF;stroke-width:0.4512;stroke-miterlimit:10;}
	.st4{clip-path:url(#SVGID_2_);}
	.st5{fill:#FFECD6;}
	.st6{opacity:0.3;fill:#2596DC;}
	.st7{fill-rule:evenodd;clip-rule:evenodd;fill:#2596DC;}
	.st8{fill-rule:evenodd;clip-rule:evenodd;fill:#F3EAEB;}
</style>
<g>
	<circle class="st0" cx="542.44" cy="546.51" r="518.4"/>
	<g>
		<ellipse class="st1" cx="542.44" cy="546.51" rx="271.06" ry="271.06"/>
		
			<ellipse transform="matrix(0.7071 -0.7071 0.7071 0.7071 -227.5609 543.6309)" class="st0" cx="542.44" cy="546.51" rx="227.38" ry="227.38"/>
		<circle class="st1" cx="542.44" cy="546.51" r="198.24"/>
		<g>
			<g>
				<path class="st0" d="M792.6,532.68c-7.64,0-13.82,6.19-13.82,13.82s6.18,13.82,13.82,13.82c7.63,0,13.82-6.19,13.82-13.82
					S800.23,532.68,792.6,532.68z"/>
				<path class="st0" d="M295.78,532.68c-7.63,0-13.82,6.19-13.82,13.82s6.19,13.82,13.82,13.82c7.64,0,13.82-6.19,13.82-13.82
					S303.41,532.68,295.78,532.68z"/>
			</g>
		</g>
		<ellipse class="st2" cx="542.44" cy="546.51" rx="90.36" ry="90.36"/>
		<circle class="st1" cx="542.44" cy="546.51" r="63.74"/>
		<g>
			<g>
				<path class="st0" d="M558.01,794.91c0-7.63-6.19-13.82-13.82-13.82c-7.64,0-13.83,6.19-13.83,13.82
					c0,7.63,6.19,13.82,13.83,13.82C551.82,808.74,558.01,802.55,558.01,794.91z"/>
				<path class="st0" d="M558.01,298.1c0-7.63-6.19-13.82-13.82-13.82c-7.64,0-13.83,6.19-13.83,13.82
					c0,7.63,6.19,13.82,13.83,13.82C551.82,311.92,558.01,305.73,558.01,298.1z"/>
			</g>
		</g>
	</g>
</g>
</svg>
