<?xml version="1.0" encoding="utf-8"?>
<!-- Generator: Adobe Illustrator 24.0.1, SVG Export Plug-In . SVG Version: 6.00 Build 0)  -->
<svg version="1.1" id="Layer_1" xmlns="http://www.w3.org/2000/svg" xmlns:xlink="http://www.w3.org/1999/xlink" x="0px" y="0px"
	 viewBox="0 0 1080 1080" style="enable-background:new 0 0 1080 1080;" xml:space="preserve">
<style type="text/css">
	.st0{fill:#F3EAEB;}
	.st1{fill:#2596DC;}
	.st2{fill:#F2EFEF;}
	.st3{fill:none;stroke:#FFFFFF;stroke-width:0.4512;stroke-miterlimit:10;}
	.st4{clip-path:url(#SVGID_2_);}
	.st5{fill:#FFECD6;}
	.st6{opacity:0.3;fill:#2596DC;}
	.st7{fill-rule:evenodd;clip-rule:evenodd;fill:#2596DC;}
	.st8{fill-rule:evenodd;clip-rule:evenodd;fill:#F3EAEB;}
</style>
<circle class="st0" cx="540.36" cy="537.73" r="524.16"/>
<path class="st1" d="M765.63,741.23h0.62c1.11,0,2.18-0.17,3.22-0.41c0.11,0,0.18,0.03,0.25,0.03c7.85,0,14.19-6.36,14.19-14.19
	V239.88c0-7.83-6.34-14.19-14.19-14.19H365.35c-37.76,0-68.44,30.7-68.44,68.44c0,0.49,0.1,0.98,0.13,1.49
	c-0.04,34.83-0.48,441.16-0.04,483.26c-0.03,0.82-0.13,1.62-0.13,2.46c0,36.28,28.39,65.98,64.15,68.23
	c0.69,0.11,1.42,0.21,2.14,0.21h405.39c7.01,0,12.7-5.69,12.7-12.7v-2.96c0-7.01-5.69-12.7-12.7-12.7h-2.97
	c-10.13-4.72-17.88-20.03-18.39-38.18l0.02-0.22c0.03-0.36,0.06-0.73,0.06-1.11c0-0.51-0.01-1.22-0.03-2.14l-0.02-1.09
	C747.91,760.91,755.66,745.9,765.63,741.23z M740.34,778.51l0,0.09l0.02,1.29c0.02,0.87,0.03,1.54,0.03,2.01
	c0,0.19-0.02,0.37-0.03,0.55l-0.05,0.64l0,0.15c0.41,15.98,5.8,29.82,13.86,38.18H365.32c-21.53,0-39.15-17.13-40.01-38.46
	c0.04-0.37,0.11-0.73,0.11-1.11c0-0.62-0.04-1.59-0.07-2.91c1.24-20.98,18.69-37.7,39.98-37.7h388.92
	C746.31,749.44,740.92,762.95,740.34,778.51z"/>
<path class="st5" d="M746.48,792.1l0,0.09l0.02,1.29c0.02,0.87,0.03,1.54,0.03,2.01c0,0.19-0.02,0.37-0.03,0.55l-0.05,0.64l0,0.15
	c0.41,15.98,5.8,29.82,13.86,38.18H371.46c-21.53,0-39.15-17.13-40.01-38.46c0.04-0.37,0.11-0.73,0.11-1.11
	c0-0.62-0.04-1.59-0.07-2.91c1.24-20.98,18.69-37.7,39.98-37.7h388.92C752.45,763.03,747.06,776.53,746.48,792.1z"/>
<path class="st5" d="M746.48,792.1l0,0.09l0.02,1.29c0.02,0.87,0.03,1.54,0.03,2.01c0,0.19-0.02,0.37-0.03,0.55l-0.05,0.64l0,0.15
	c0.41,15.98,5.8,29.82,13.86,38.18H371.46c-21.53,0-39.15-17.13-40.01-38.46c0.04-0.37,0.11-0.73,0.11-1.11
	c0-0.62-0.04-1.59-0.07-2.91c1.24-20.98,18.69-37.7,39.98-37.7h388.92C752.45,763.03,747.06,776.53,746.48,792.1z"/>
<path class="st0" d="M746.48,792.1l0,0.09l0.02,1.29c0.02,0.87,0.03,1.54,0.03,2.01c0,0.19-0.02,0.37-0.03,0.55l-0.05,0.64l0,0.15
	c0.41,15.98,5.8,29.82,13.86,38.18H371.46c-21.53,0-39.15-17.13-40.01-38.46c0.04-0.37,0.11-0.73,0.11-1.11
	c0-0.62-0.04-1.59-0.07-2.91c1.24-20.98,18.69-37.7,39.98-37.7h388.92C752.45,763.03,747.06,776.53,746.48,792.1z"/>
</svg>
