<?xml version="1.0" encoding="utf-8"?>
<!-- Generator: Adobe Illustrator 24.0.1, SVG Export Plug-In . SVG Version: 6.00 Build 0)  -->
<svg version="1.1" id="Layer_1" xmlns="http://www.w3.org/2000/svg" xmlns:xlink="http://www.w3.org/1999/xlink" x="0px" y="0px"
	 viewBox="0 0 1080 1080" style="enable-background:new 0 0 1080 1080;" xml:space="preserve">
<style type="text/css">
	.st0{fill:#F3EAEB;}
	.st1{fill:#2596DC;}
	.st2{fill:#F2EFEF;}
	.st3{fill:none;stroke:#FFFFFF;stroke-width:0.4512;stroke-miterlimit:10;}
	.st4{clip-path:url(#SVGID_2_);}
	.st5{fill:#FFECD6;}
	.st6{opacity:0.3;fill:#2596DC;}
	.st7{fill-rule:evenodd;clip-rule:evenodd;fill:#2596DC;}
	.st8{fill-rule:evenodd;clip-rule:evenodd;fill:#F3EAEB;}
</style>
<circle class="st0" cx="536.82" cy="541.27" r="519.87"/>
<g>
	<g>
		<g>
			<g>
				<path class="st1" d="M689.03,894.18c-9.93,0-22.36-1.51-36.94-4.49l-0.23-0.05L551.6,849.46l23.42-39.5l92.05,11.03l0.25,0.09
					c6.67,2.25,18.6,7.43,30.25,14.63c9.05,5.6,20.53,14.12,23.77,22.9c3.14,8.49-3.09,25.34-9.67,30.37
					C707.08,892.48,699.67,894.18,689.03,894.18z"/>
				<path class="st1" d="M576.39,812.73l90.12,10.8c14.73,4.96,47.03,21.4,52.42,35.98c2.59,7.01-2.87,22.89-8.82,27.42
					c-4.56,3.48-12.41,4.68-21.08,4.68c-13.04,0-27.96-2.71-36.43-4.44l-97.25-38.98L576.39,812.73L576.39,812.73z M573.66,807.21
					l-1.71,2.89l-21.03,35.46l-3.07,5.18l5.59,2.24l97.25,38.98l0.43,0.17l0.45,0.09c14.75,3.02,27.36,4.55,37.46,4.55
					c11.23,0,19.14-1.88,24.2-5.73c7.36-5.61,14.05-23.79,10.53-33.31c-6.56-17.74-43.06-34.86-55.61-39.08l-0.5-0.17l-0.53-0.06
					L577,807.61L573.66,807.21L573.66,807.21z"/>
			</g>
			<g>
				<path class="st1" d="M692.91,835.93c11.88,6.94,23.04,15.54,26.02,23.58c2.59,7.01-2.87,22.89-8.82,27.42
					c-6.38,4.86-19.17,5.27-31.67,4.18c-2.37-8.83-2.33-19.45,0.68-30.25C681.94,850.77,686.9,842.17,692.91,835.93z"/>
				<path class="st1" d="M671.22,832.1c6.36,1.78-23.31,18.58-23.31,18.58s8.51,31.62,2.15,29.84l-86.04-37.04l10.61-27.79
					L671.22,832.1z"/>
			</g>
		</g>
		<path class="st1" d="M565.28,852.17l-33.47-8.1l20.34-37.14l27.81,6.68c-2.14,7.63,6.79,21.35,6.79,21.35
			S568.13,839.64,565.28,852.17z"/>
	</g>
	<path class="st1" d="M545.24,813.69l57.09,80.64c0,0,135.78-61.61,192.36-89.58c17.48-8.64,16.85-35.91,14.17-47.59
		c-2.62-11.38-22.34-30.45-33.59-33.61c-45.74-12.85-149.9-37.31-149.9-37.31l-88.39-3.54l-135.3,8.16l-103.73,25.92l-30.46,49.39
		c0,0,0.74,27.67,20.11,38.96c16.97,9.89,55.06,22.97,74.27,27.07c15.64,3.33,66.58,12.31,66.58,12.31L545.24,813.69z"/>
	<g>
		<rect x="535.68" y="715.02" class="st1" width="9.03" height="33.46"/>
	</g>
	<path class="st6" d="M304.42,788.52c-16.85-11.69-13.32-24.56-13.32-37.46c0,0-6.49-4.87-9.77-7.32l-13.84,22.43
		c0,0,0.74,27.67,20.11,38.96c16.97,9.89,55.06,22.97,74.27,27.07c15.64,3.33,66.58,12.31,66.58,12.31l109.2-28.83l0,0l-68.61,11.87
		C469.03,827.57,337.09,811.19,304.42,788.52z"/>
	<path class="st6" d="M810.24,768.33c-3.36-1.28-7.15-0.86-10.55,4.06c-8.66,12.51-214.74,97.38-214.74,97.38l0,0l17.39,24.57
		c0,0,135.78-61.61,192.36-89.58C807.8,798.27,810.72,781.33,810.24,768.33z"/>
	<path class="st1" d="M405.39,687.6l-11.05,5.1L300,716.27c-2.81,3.66-5.93,7.77-9.18,12.07l-23.33,37.83c0,0,0.12,4.32,1.45,10.24
		c6.07-5.14,24.06-22.08,41.66-35.61c24.09-12.05,61.02-25.82,81.01-29.26c24.17-4.15,69.2,25.76,89.64,15.43
		c11.71-5.92,16.57-28.25,16.57-28.25L405.39,687.6z"/>
	<path class="st1" d="M667.99,686.89l7.43,11.3l102.2,25.79c2.81,3.66,6.74-1.23,9.99,3.07l23.33,37.83c0,0-0.12,4.32-1.45,10.24
		c-6.07-5.14-24.06-22.08-41.66-35.61c-24.09-12.05-71.09-23.27-91.08-26.7c-24.17-4.15-61.68,24.48-82.11,14.15
		c-11.71-5.92-16.12-26.59-16.12-26.59L667.99,686.89z"/>
	<path class="st1" d="M494.76,383.97h86.51L634.5,689.6c0,0-71.59,8.63-94.07,8.6c-23.25-0.03-92.65-16.49-92.65-16.49
		L494.76,383.97z"/>
	<g>
		<g>
			<path class="st1" d="M605.67,303.8c-3.81,13.07-10.33,18.46-15.75,16.08c-5.43-2.37-7.69-11.61-3.89-24.67
				c3.81-13.07,9.14-26.37,17.66-22.64C611.57,276.02,609.47,290.74,605.67,303.8z"/>
		</g>
		<g>
			<path class="st1" d="M599.28,302.66c-1.98,6.82-5.4,9.64-8.23,8.41c-2.84-1.24,2.74-26.69,7.2-24.73
				C602.37,288.13,601.27,295.82,599.28,302.66z"/>
		</g>
		<g>
			<path class="st1" d="M471.45,303.8c3.81,13.07,10.33,18.46,15.75,16.08c5.43-2.37,7.69-11.61,3.88-24.67
				c-3.81-13.07-9.13-26.37-17.66-22.64C465.54,276.02,467.65,290.74,471.45,303.8z"/>
		</g>
		<g>
			<path class="st1" d="M477.84,302.66c1.98,6.82,5.4,9.64,8.23,8.41c2.83-1.24-2.75-26.69-7.2-24.73
				C474.76,288.13,475.84,295.82,477.84,302.66z"/>
		</g>
		<g>
			<path class="st1" d="M568.38,383.36c0,0,7.12,15.38-24.29,16.1c-33.46,0.76-39.48-15.68-39.48-15.68l-2.76-47.58l65.32-2.12
				L568.38,383.36z"/>
		</g>
		<g>
			<path class="st1" d="M502.13,354.37c-0.28,11.42,17.83,23.65,33.33,31.17c15.79,7.67,36.95,6.19,36.95,6.19
				s-3.45-46.49-3.33-51.26c0.29-11.42-13.33-14.46-30.66-14.85C521.08,325.22,502.4,342.96,502.13,354.37z"/>
		</g>
		<g>
			<path class="st1" d="M595.34,290.83c0.19,7.5-5.28,48.39-15.65,58.86c-5.77,5.82-20.23,21.75-27.31,24.13
				c-6.75,2.27-21.83,2.26-28.58,0c-7.07-2.37-22.12-18.71-27.23-24.13c-9.86-10.46-13.96-49.65-14.12-56.29
				c-0.68-27.66-3.94-57.46,4.39-71.68c7.94-13.56,26.86-12.16,50.81-12.17C591.82,209.53,594.02,236.81,595.34,290.83z"/>
		</g>
		<g>
			<path class="st1" d="M515.36,328.04c0,0,5.14,11.63,23.22,11.63c17.58,0,24.26-11.63,24.26-11.63H515.36z"/>
		</g>
		<g>
			<path class="st1" d="M541.05,353.58c4.35-0.61,6.33-2.43,5.71-4.66c-0.27-0.96-4.48,0.76-7.9,0.95c-4.98,0.3-8.52-1.5-7.97,0.49
				C531.79,353.61,536.05,354.28,541.05,353.58z"/>
		</g>
		<g>
			<path class="st1" d="M492.78,273.67c1.86-3.97,8.02-5.58,12.09-5.74c6.08-0.24,14.88-4.8,19.26,0.49
				c3.84,4.63,3.87,13.12,2.27,15.32c-5.25,7.2-20.95,3.6-26.11,4.47C498.53,288.5,487.7,284.39,492.78,273.67z"/>
		</g>
		<g>
			<path class="st1" d="M551.07,315.35L551.07,315.35c0,0-2.03-6.99-3.27-6.14c-0.92,0.63-0.29,2.6-2.46,5.86
				c-3.04,3.09-10.48,1.88-11.92-0.23c-0.08-0.11-2.59-31.83-3.28-35.33c-0.79-3.91-2.01-8.99-3.49-11.5
				c-1.7-2.88-2.21-0.5-6.26-0.87c-3.23-0.31,2.78-0.63,6.05,17.13c0.55,2.95-0.52,30.78-0.59,31.92
				c-0.34,5.75,21.85,6.59,25.35,0.72C551.6,316.27,551.46,315.67,551.07,315.35z"/>
		</g>
		<g>
			<path class="st1" d="M508.35,259.64c-6.48,0.5-11.15,2.75-13.79,5.19c-4.07,3.77-2,9.31-2,9.31c5.23-3.19,8.17-6.26,18.93-6.71
				c8.29-0.35,13.17,4.61,15.59,4.11c1.8-0.37,0.77-6.52-5.02-9.75C518.93,260.04,513.32,259.26,508.35,259.64z"/>
		</g>
		<path class="st1" d="M493.71,225.43c8.97-5.68,28.03,2.52,43.4,2.82c12.61,0.25,31.47-8.59,44.34-2.82
			c12.46,5.58,2.69,28.05,12.5,51.68c0.46,1.11,1.94-0.33,3.44-4.5c2.93-8.15,15.72-64.87-11.2-81.28
			c-13.94-8.5-19.76-4.6-19.76-4.6s-38.64-23.66-71.46-0.68c-37.01,25.91-18.03,80.78-14.62,88.64c1.99,4.59,3.32,4.04,5.54-0.81
			C492.19,260.21,483.11,232.15,493.71,225.43z"/>
		<g>
			<path class="st1" d="M585.04,273.67c-1.86-3.97-8.02-5.58-12.08-5.74c-6.08-0.24-14.88-4.8-19.26,0.49
				c-3.84,4.63-3.87,13.12-2.27,15.32c5.24,7.2,20.95,3.6,26.11,4.47C579.29,288.5,590.11,284.39,585.04,273.67z"/>
		</g>
		<g>
			<path class="st1" d="M557.14,281.68c14.81-7.04,24.38,3.73,24.38,3.73s-3.55,11.16-17.9,6.36c-5.94-1.99-5.17-3.04-7.38-2.63
				C552.39,289.85,552.94,283.68,557.14,281.68z"/>
		</g>
		<g>
			<path class="st1" d="M558.14,282.83c-2.62,1.14-3.61,2.54-4.05,3.98c-2.02-2.1-1.03-4.76,2.68-7.17
				c8.25-5.36,23.78-1.54,25.99,1.7c1.22,1.79-0.06,3.88-1.1,5.35C579.61,281.57,568.87,278.18,558.14,282.83z"/>
		</g>
		<g>
			<path class="st1" d="M554.07,283.85c-0.22,0-0.45,0.07-0.65,0.21c-0.53,0.36-0.66,1.08-0.29,1.59
				c6.62,9.18,16.54,7.78,20.49,6.76c5.26-1.36,9.39-4.31,9.61-6.86c0.06-0.63-0.43-1.18-1.08-1.23c-0.66-0.05-1.23,0.41-1.28,1.04
				c-0.09,1-2.86,3.54-7.86,4.84c-3.47,0.9-12.18,2.13-17.93-5.85C554.84,284.01,554.45,283.85,554.07,283.85z"/>
		</g>
		<g>
			<path class="st1" d="M520.68,281.68c-14.81-7.04-24.38,3.73-24.38,3.73s3.55,11.16,17.9,6.36c5.94-1.99,5.17-3.04,7.37-2.63
				C525.43,289.85,524.88,283.68,520.68,281.68z"/>
		</g>
		<g>
			<path class="st1" d="M519.68,282.83c2.62,1.14,3.61,2.54,4.05,3.98c2.02-2.1,1.03-4.76-2.68-7.17
				c-8.25-5.36-23.78-1.54-25.99,1.7c-1.22,1.79,0.07,3.88,1.11,5.35C498.2,281.57,508.95,278.18,519.68,282.83z"/>
		</g>
		<g>
			<path class="st1" d="M523.75,283.85c0.22,0,0.45,0.07,0.65,0.21c0.53,0.36,0.66,1.08,0.29,1.59c-6.62,9.18-16.54,7.78-20.5,6.76
				c-5.26-1.36-9.39-4.31-9.61-6.86c-0.05-0.63,0.43-1.18,1.08-1.23c0.66-0.05,1.22,0.41,1.28,1.04c0.09,1,2.86,3.54,7.86,4.84
				c3.48,0.9,12.18,2.13,17.93-5.85C522.98,284.01,523.36,283.85,523.75,283.85z"/>
		</g>
		<g>
			<path class="st1" d="M569.42,259.64c6.49,0.5,11.15,2.75,13.79,5.19c4.08,3.77,2,9.31,2,9.31c-5.23-3.19-8.17-6.26-18.93-6.71
				c-8.29-0.35-13.17,4.61-15.58,4.11c-1.8-0.37-0.77-6.52,5.02-9.75C558.84,260.04,564.45,259.26,569.42,259.64z"/>
		</g>
	</g>
	<polygon class="st1" points="507.08,697.31 539.48,726.96 565.95,698.78 543.43,426.68 552.36,406.97 549.46,400.15 524.93,399.54 
		519.6,408.21 529.04,426.79 507.14,694.86 	"/>
	<polygon class="st1" points="536.71,399.54 523.84,416.57 524.81,418.47 512.01,434.31 522.07,512.08 521.49,519.23 499.12,428.28 
			"/>
	<path class="st1" d="M494.76,383.97c0,0-19.98,17.78-50.94,22.4c-9.22,1.37-29.51,2.98-36.01,9.66
		c-12.58,12.95-6.6,46.33-16.69,70.26c-3.03,7.19,2.03,24.35-1.76,31.18c-2.21,3.99-8.65,7.93-10.98,11.86
		c-5.82,9.79-8.74,33.43-13.17,43.91c-8.59,20.34-51.82,71.14-51.82,71.14l-33.81,41.28l50.03,27.9c0,0,56.9-45.69,76-75.77
		c7.11-11.2,32.06-49.18,32.06-49.18c4.39,5.84-9.8,49.36-16.69,63.24c-9.27,18.67-24.18,44-24.18,44s44.95,25.8,76.96,22.77
		c15.73-1.49,36.1-69.63,47.71-112.18C536.74,550.45,494.76,383.97,494.76,383.97z"/>
	<path class="st1" d="M578.68,383.97c0,0,19.98,17.78,50.93,22.4c9.22,1.37,29.52,2.98,36.01,9.66
		c12.58,12.95,6.6,46.33,16.69,70.26c3.03,7.19-2.03,24.35,1.75,31.18c2.22,3.99,8.65,7.93,10.98,11.86
		c5.81,9.79,8.74,33.43,13.17,43.91c8.59,20.34,51.82,71.14,51.82,71.14l33.82,41.28l-51.41,29.37c0,0-55.52-47.15-74.62-77.23
		c-7.12-11.2-32.06-49.18-32.06-49.18c-4.39,5.84,9.8,49.36,16.69,63.24c9.27,18.67,21.27,49.23,21.27,49.23
		s-53.52,23.99-71.46,14.79c-23.17-11.88-39.04-59.51-49.08-100.54C539.41,558.96,578.68,383.97,578.68,383.97z"/>
	<polygon class="st1" points="536.71,399.54 503.63,366.78 497.83,374.09 504.66,428.28 	"/>
	<polygon class="st1" points="536.71,399.54 570.58,366.78 575.6,374.09 568.77,428.28 	"/>
	<path class="st1" d="M497.83,374.09l-40.18,29.32l18.44,25.35l-10.54,17.79c0,0,20.86,48.09,36.23,98.15
		c11.34,36.94,14.52,80.21,14.52,80.21s22.81-27.07-1.57-143.44C508.67,452.53,497.83,374.09,497.83,374.09z"/>
	<path class="st1" d="M575.6,374.09l40.18,30.61l-18.45,24.06l10.54,17.79c0,0-20.86,48.09-36.23,98.15
		c-11.34,36.94-16.04,80.21-16.04,80.21s-21.29-27.07,3.09-143.44C564.76,452.53,575.6,374.09,575.6,374.09z"/>
	<g>
		<g>
			<g>
				<path class="st1" d="M428.38,903.3c-11.68,0-19.82-1.88-24.9-5.75c-7.27-5.54-14.14-24.16-10.67-33.54
					c6.84-18.5,45.69-36.61,59.07-41.12l0.32-0.11l92.24-10.5l34.79,41.86l-110.26,44.19l-0.28,0.06
					C452.79,901.65,439.23,903.3,428.38,903.3L428.38,903.3z"/>
				<path class="st1" d="M543.07,815.69l30.85,37.11l-105.88,42.44c-9.21,1.88-25.46,4.84-39.66,4.84c-9.44,0-17.98-1.3-22.95-5.09
					c-6.47-4.93-12.42-22.22-9.6-29.86c5.87-15.87,41.04-33.78,57.08-39.18L543.07,815.69L543.07,815.69z M545.81,808.89l-3.46,0.39
					l-90.17,10.26l-0.68,0.08l-0.65,0.22c-13.77,4.64-53.82,23.45-61.07,43.05c-2.49,6.75-0.29,15.55,1.24,20.2
					c1.19,3.62,4.61,12.53,10.5,17.02c5.66,4.31,14.45,6.41,26.86,6.41c11.06,0,24.84-1.67,40.95-4.97l0.57-0.12l0.54-0.22
					l105.88-42.44l8.22-3.29l-5.66-6.81l-30.85-37.11L545.81,808.89L545.81,808.89z"/>
			</g>
			<g>
				<path class="st1" d="M424.15,839.46c-12.94,7.55-25.09,16.92-28.32,25.68c-2.82,7.63,3.13,24.92,9.6,29.86
					c6.95,5.3,20.87,5.73,34.48,4.54c2.58-9.61,2.53-21.18-0.75-32.93C436.1,855.62,430.7,846.25,424.15,839.46z"/>
				<path class="st1" d="M456.98,832.51c-6.92,1.94,16.18,23,16.18,23s-7.74,31.85-0.81,29.91c0,0,41.8-14.57,92.16-37.75
					c7.35-3.39-11.56-30.25-11.56-30.25L456.98,832.51z"/>
			</g>
		</g>
		<path class="st1" d="M535.24,864.06l38.99-9.43l-22.41-41.78l-33.66,6.31c2.5,8.89-7.91,24.87-7.91,24.87
			S531.93,849.48,535.24,864.06z"/>
	</g>
	<path class="st1" d="M794.67,701.63c0,0,19.02-4.37,25.49-4.32c5.85,0.05,18.28,2.81,22.02,7.31c2.72,3.28,0.17,18.82,0.17,18.82
		s-4.6,0.61-5.96,0c-2.59-1.15-7.78-10.19-7.78-10.19s-5.4,5.91-5.96,8.43c-0.77,3.46,0.08,10.08,2.47,12.7
		c1.29,1.42,8.68,3.33,8.68,3.33s-1.14-10.86,1.57-13.18c1.48-1.27,6.81-0.79,6.81-0.79s2.83,12.07,2.05,16.03
		c-0.58,2.96-3.41,7.6-5.96,9.21c-2.48,1.56-14.75-1.38-14.75-1.38s24.42,25.47,26.47,30.84c1.21,3.15-4.42,6.88-9.09,2.62
		c-2.85-2.61-26.7-29.25-27.84-29.82c-0.81-0.4,20.87,24,25.27,31.6c1.19,2.05-2.97,7.86-8.89,3.2
		c-2.25-1.77-27.24-27.24-29.79-29.58c-0.96-0.88,15.69,16.43,17.5,19.8c1.02,1.89-2.27,6.08-7,3.62
		c-9.11-4.75-19.02-15.8-25.31-21.82c-3.84-3.67-11.89-13.84-14.59-18.41c-3.52-5.94-8.43-23.31-8.43-23.31l23.58-19.26
		L794.67,701.63z"/>
	<path class="st1" d="M761.81,716.34c0,0,3.98,14.06,7.33,21.21l24.4-36.47l-8.16-4L761.81,716.34z"/>
	<path class="st1" d="M278.97,701.63c0,0-19.02-4.37-25.49-4.32c-5.85,0.05-18.28,2.81-22.02,7.31c-2.72,3.28-0.22,19.11-0.22,19.11
		s4.6,0.61,5.96,0c2.59-1.15,7.82-10.48,7.82-10.48s5.4,5.91,5.96,8.43c0.78,3.46-0.08,10.08-2.47,12.7
		c-1.29,1.42-8.68,3.33-8.68,3.33s1.14-10.86-1.57-13.18c-1.49-1.27-6.81-0.79-6.81-0.79s-2.84,12.07-2.05,16.03
		c0.58,2.96,3.41,7.6,5.96,9.21c2.48,1.56,14.75-1.38,14.75-1.38s-24.41,25.47-26.47,30.84c-1.2,3.15,4.42,6.88,9.09,2.62
		c2.85-2.61,26.7-29.25,27.84-29.82c0.81-0.4-20.87,24-25.27,31.6c-1.18,2.05,2.97,7.86,8.9,3.2c2.25-1.77,27.24-27.24,29.79-29.58
		c0.96-0.88-15.69,16.43-17.5,19.8c-1.02,1.89,2.27,6.08,7,3.62c9.11-4.75,19.02-15.8,25.31-21.82
		c3.83-3.67,11.89-13.84,14.59-18.41c3.52-5.94,8.43-23.31,8.43-23.31l-23.58-19.26L278.97,701.63z"/>
	<path class="st1" d="M312.27,714.05c0,0-3.66,14.64-7.02,21.79l-23.9-35.38l7.34-5.67L312.27,714.05z"/>
	<polygon class="st1" points="282.15,686.96 275.45,697.08 318.28,721.64 328.23,712.79 	"/>
	<polygon class="st1" points="791.41,686.89 798.18,697.08 755.36,721.64 745.71,712.57 	"/>
</g>
</svg>
