<?xml version="1.0" encoding="utf-8"?>
<!-- Generator: Adobe Illustrator 24.0.1, SVG Export Plug-In . SVG Version: 6.00 Build 0)  -->
<svg version="1.1" id="Layer_1" xmlns="http://www.w3.org/2000/svg" xmlns:xlink="http://www.w3.org/1999/xlink" x="0px" y="0px"
	 viewBox="0 0 1080 1080" style="enable-background:new 0 0 1080 1080;" xml:space="preserve">
<style type="text/css">
	.st0{fill:#F3EAEB;}
	.st1{fill:#2596DC;}
	.st2{fill:#F2EFEF;}
	.st3{fill:none;stroke:#FFFFFF;stroke-width:0.4512;stroke-miterlimit:10;}
	.st4{clip-path:url(#SVGID_2_);}
	.st5{fill:#FFECD6;}
	.st6{opacity:0.3;fill:#2596DC;}
	.st7{fill-rule:evenodd;clip-rule:evenodd;fill:#2596DC;}
	.st8{fill-rule:evenodd;clip-rule:evenodd;fill:#F3EAEB;}
</style>
<circle class="st0" cx="542.76" cy="533.88" r="521.28"/>
<g>
	<path class="st1" d="M454.05,952.58c-23.41,0-55.18-6.33-95.23-28.12c-19.5-10.61-28.86-25.05-27.82-42.91
		c3.62-62.01,141.18-144.65,182.45-161.22c23.87-9.58,65.99-14.57,110.57-19.85c54.81-6.49,123.02-14.57,132.52-32.22l11.56,6.22
		c-12.74,23.66-75.78,31.13-142.53,39.03c-41.77,4.95-84.97,10.06-107.23,19c-50.3,20.19-171.31,99.75-174.23,149.79
		c-0.74,12.52,6.14,22.54,20.98,30.62c86.54,47.07,129.75,17.1,130.17,16.79l7.69,10.64C501.81,941.18,485.44,952.58,454.05,952.58z
		"/>
	<path class="st1" d="M364.64,939.67c-2.68-2.68-65.7-66.34-61.46-118.35c1.36-16.63,9.3-30.27,23.62-40.55
		c27.16-19.5,79.33-15.51,139.73-10.88c88.32,6.76,198.23,15.18,258.95-51.53c45.16-49.6,56.28-125.64,29.75-203.4
		c-24.1-70.6-74.13-124.02-124.5-132.91c-9.61-1.69-16.92,0.04-22.37,5.34c-15.03,14.63-13.08,53.13-11.06,66.73l-12.98,1.93
		c-0.34-2.27-7.99-55.81,14.89-78.08c8.56-8.33,19.92-11.31,33.81-8.86c55.8,9.85,108.65,65.43,134.64,141.6
		c28.11,82.35,15.97,163.28-32.46,216.48c-65.03,71.45-178.49,62.76-269.67,55.79c-57.83-4.43-107.8-8.25-131.07,8.46
		c-11.2,8.04-17.15,18.16-18.19,30.95c-3.75,46.02,57.04,107.39,57.65,108.01L364.64,939.67z"/>
	<path class="st1" d="M641.35,872.3c0,12.08-9.8,21.88-21.88,21.88H402.1c-12.09,0-21.88-9.8-21.88-21.88V495.92
		c0-12.08,9.8-21.88,21.88-21.88h217.36c12.09,0,21.88,9.8,21.88,21.88V872.3z"/>
	<path class="st2" d="M609.26,708.91c0,12.08-9.8,21.88-21.88,21.88H434.2c-12.09,0-21.88-9.8-21.88-21.88V532.4
		c0-12.09,9.8-21.88,21.88-21.88h153.18c12.09,0,21.88,9.8,21.88,21.88V708.91z"/>
	<circle class="st2" cx="510.79" cy="809.39" r="48.69"/>
	<path class="st1" d="M541.77,809.39c0,17.11-13.87,30.97-30.98,30.97c-17.11,0-30.98-13.86-30.98-30.97
		c0-17.11,13.86-30.97,30.98-30.97C527.89,778.41,541.77,792.28,541.77,809.39z"/>
	<path class="st1" d="M508.65,693.33c-0.07,0-0.13,0-0.2,0c-3.37-0.1-6.09-2.78-6.24-6.15l-2.32-52.46l-3.93,36.98
		c-0.35,3.28-3.12,5.76-6.4,5.76c-0.04,0-0.08,0-0.12,0c-3.33-0.06-6.08-2.66-6.31-5.99l-3.04-43.88l-4.69,32.34
		c-0.46,3.17-3.17,5.51-6.37,5.51c-0.01,0-0.01,0-0.01,0c-3.21,0-5.92-2.36-6.37-5.53l-1.34-9.43l-5.01,33.73
		c-0.49,3.25-3.33,5.67-6.62,5.49c-3.28-0.13-5.94-2.71-6.17-5.99l-3.5-50.92l-1.85,7.18c-0.73,2.84-3.3,4.83-6.24,4.83l0,0
		l-19.32-0.01v-12.87l14.33,0.01l10.52-40.97c0.79-3.06,3.72-5.06,6.82-4.81c3.15,0.29,5.62,2.82,5.84,5.97l2.17,31.55l2.81-18.9
		c0.47-3.16,3.18-5.49,6.37-5.49c0.01,0,0.01,0,0.02,0c3.2,0.01,5.91,2.37,6.35,5.53l1.27,8.89l6.89-47.46
		c0.47-3.25,3.39-5.65,6.61-5.5c3.29,0.12,5.96,2.71,6.19,5.99l2.13,30.7l5.21-49.07c0.35-3.35,3.37-5.87,6.6-5.75
		c3.37,0.1,6.09,2.78,6.23,6.15l2.31,51.93l4.32-40.98c0.35-3.28,3.11-5.76,6.4-5.76c0.02,0,0.04,0,0.06,0
		c3.32,0.03,6.07,2.57,6.36,5.88l3.26,37.51l2.67-19.89c0.43-3.18,3.13-5.56,6.33-5.58c0.03,0,0.04,0,0.06,0
		c3.18,0,5.89,2.33,6.36,5.47l4.28,28.36l4.14-16.07c0.77-3.02,3.63-5.09,6.7-4.82c3.11,0.23,5.61,2.65,5.93,5.74l2.29,21.61
		l5.67-60.08c0.32-3.27,3.04-5.79,6.33-5.83c3.4,0.03,6.09,2.41,6.47,5.68l9.5,80.34l11.08,0.05l-0.06,12.87l-16.77-0.08
		c-3.25-0.01-5.97-2.45-6.36-5.68l-3.06-25.86l-6.02,63.77c-0.31,3.3-3.07,5.82-6.37,5.83c-3.35,0.08-6.09-2.47-6.44-5.76
		l-5.3-50.06l-3.13,12.18c-0.77,2.97-3.59,4.94-6.56,4.83c-3.06-0.15-5.58-2.44-6.03-5.47l-2.27-14.96l-4.4,32.88
		c-0.44,3.26-3.22,5.7-6.53,5.58c-3.28-0.08-5.98-2.61-6.27-5.88l-2.51-28.89l-6.32,59.96C514.7,690.85,511.93,693.33,508.65,693.33
		z"/>
	<path class="st1" d="M602.99,481.56c0,6.73-5.45,12.18-12.18,12.18l0,0c-6.73,0-12.18-5.45-12.18-12.18v-23.77
		c0-6.74,5.45-12.19,12.18-12.19l0,0c6.73,0,12.18,5.45,12.18,12.19V481.56z"/>
	<path class="st1" d="M409.12,935.03c0,19.84-16.09,35.92-35.92,35.92c-19.83,0-35.92-16.08-35.92-35.92
		c0-19.83,16.09-35.91,35.92-35.91C393.04,899.11,409.12,915.2,409.12,935.03z"/>
	<path class="st2" d="M393.04,935.03c0,10.96-8.88,19.85-19.84,19.85c-10.96,0-19.85-8.89-19.85-19.85s8.89-19.84,19.85-19.84
		C384.16,915.19,393.04,924.07,393.04,935.03z"/>
	<path class="st1" d="M531.49,938.53c0,19.83-16.08,35.91-35.91,35.91c-19.84,0-35.92-16.08-35.92-35.91
		c0-19.84,16.08-35.92,35.92-35.92C515.41,902.61,531.49,918.69,531.49,938.53z"/>
	<path class="st2" d="M515.42,938.53c0,10.96-8.88,19.84-19.84,19.84c-10.97,0-19.85-8.88-19.85-19.84
		c0-10.96,8.88-19.84,19.85-19.84C506.54,918.69,515.42,927.57,515.42,938.53z"/>
	<g>
		<g>
			<path class="st1" d="M596.67,124.28c-7.99-3.76-16.9-10.25-16.9-13.55v-14c0-1.88-1.53-3.41-3.41-3.41
				c-1.88,0-3.41,1.53-3.41,3.41v72.92c-3.52-2.39-8.13-3.85-13.18-3.85c-11.04,0-20,6.94-20,15.5c0,8.56,8.95,15.5,20,15.5
				c11.04,0,20-6.94,20-15.5V121.7c5.26,4.47,11.97,7.79,13.99,8.75c1.7,0.8,3.74,0.07,4.54-1.63
				C599.1,127.11,598.37,125.08,596.67,124.28z"/>
			<path class="st1" d="M682.11,145.31c0-2.39-1.94-4.32-4.32-4.32h-72.54c-2.39,0-4.32,1.94-4.32,4.32v96.3
				c-4.48-3.09-10.37-4.97-16.83-4.97c-13.99,0-25.34,8.79-25.34,19.64c0,10.85,11.34,19.64,25.34,19.64
				c13.99,0,25.34-8.79,25.34-19.64c0-0.54,0.14-2.5,0.14-2.98v-86.25h63.89v48.9c-4.47-3.07-10.34-4.93-16.78-4.93
				c-13.99,0-25.34,8.79-25.34,19.64c0,10.85,11.34,19.64,25.34,19.64c13.56,0,24.63-8.26,25.3-18.64c0.08-0.32,0.12-0.65,0.12-1
				V145.31z"/>
		</g>
	</g>
</g>
</svg>
