<?xml version="1.0" encoding="utf-8"?>
<!-- Generator: Adobe Illustrator 24.0.1, SVG Export Plug-In . SVG Version: 6.00 Build 0)  -->
<svg version="1.1" id="Layer_1" xmlns="http://www.w3.org/2000/svg" xmlns:xlink="http://www.w3.org/1999/xlink" x="0px" y="0px"
	 viewBox="0 0 1080 1080" style="enable-background:new 0 0 1080 1080;" xml:space="preserve">
<style type="text/css">
	.st0{fill:#F3EAEB;}
	.st1{fill:#2596DC;}
	.st2{fill:#F2EFEF;}
	.st3{fill:none;stroke:#FFFFFF;stroke-width:0.4512;stroke-miterlimit:10;}
	.st4{fill:none;}
	.st5{clip-path:url(#SVGID_2_);}
	.st6{fill:#FFECD6;}
	.st7{opacity:0.3;fill:#2596DC;}
	.st8{fill-rule:evenodd;clip-rule:evenodd;fill:#2596DC;}
	.st9{fill-rule:evenodd;clip-rule:evenodd;fill:#F3EAEB;}
</style>
<circle class="st0" cx="539.12" cy="540.56" r="527.96"/>
<g>
	<path class="st1" d="M197.36,446.98v264.47c0,33.69,27.32,61.03,61.03,61.03h561.47c33.71,0,61.03-27.33,61.03-61.03V446.98H197.36
		z"/>
	<path class="st2" d="M573.53,371.72h0.26l-34.07-51.09c-1.57-2.36-1.72-5.41-0.38-7.92c1.34-2.51,3.97-4.07,6.79-4.07h-18.77
		c2.59,0,4.98,1.28,6.41,3.43L573.53,371.72z"/>
	<path class="st1" d="M493.13,371.72h0.26l-34.05-51.09c-1.58-2.36-1.74-5.41-0.38-7.92c1.35-2.51,3.94-4.07,6.79-4.07h-18.8
		c2.59,0,4.99,1.28,6.44,3.43L493.13,371.72z"/>
	<path class="st1" d="M412.76,371.72h0.25l-34.06-51.09c-1.58-2.36-1.72-5.41-0.38-7.92c1.34-2.51,3.94-4.07,6.79-4.07h-18.78
		c2.56,0,4.98,1.28,6.41,3.43L412.76,371.72z"/>
	<path class="st1" d="M653.91,371.72h0.27l-34.06-51.09c-1.59-2.36-1.73-5.41-0.38-7.92c1.34-2.51,3.94-4.07,6.79-4.07h-18.78
		c2.56,0,4.98,1.28,6.41,3.43L653.91,371.72z"/>
	<path class="st1" d="M332.36,371.72h0.26l-34.07-51.09c-1.57-2.36-1.73-5.41-0.38-7.92c1.34-2.51,3.96-4.07,6.78-4.07h-18.77
		c2.58,0,4.98,1.28,6.41,3.43L332.36,371.72z"/>
	<path class="st1" d="M814.7,371.72h0.27l-34.08-51.09c-1.56-2.36-1.72-5.41-0.38-7.92c1.35-2.51,3.94-4.07,6.79-4.07h-18.77
		c2.59,0,4.98,1.28,6.41,3.43L814.7,371.72z"/>
	<path class="st1" d="M252.22,371.72l-32.56-48.85c-0.05,0.05-0.11,0.1-0.17,0.14l32.48,48.71H252.22z"/>
	<path class="st1" d="M734.31,371.72h0.26l-34.08-51.09c-1.56-2.36-1.71-5.41-0.36-7.92c1.32-2.51,3.95-4.07,6.8-4.07h-18.8
		c2.58,0,4.98,1.28,6.44,3.43L734.31,371.72z"/>
	<path class="st1" d="M378.56,443.21c-1.34-2.51-1.2-5.53,0.38-7.91l38.23-57.34l-4.16-6.25h-0.25l1.31,1.98
		c1.72,2.59,1.72,5.96,0,8.55l-41.08,61.61c-1.19,1.79-3.12,2.79-5.2,3.12h16.46C381.88,446.62,379.72,445.38,378.56,443.21z"/>
	<path class="st1" d="M217.77,443.21c-1.32-2.51-1.19-5.53,0.39-7.91l38.22-57.34l-4.16-6.25h-0.25l1.31,1.98
		c1.71,2.59,1.71,5.96,0,8.55l-41.08,61.61c-1.19,1.79-3.12,2.79-5.2,3.12h16.47C221.1,446.62,218.94,445.38,217.77,443.21z"/>
	<path class="st1" d="M458.96,443.21c-1.36-2.51-1.2-5.53,0.38-7.91l38.22-57.34l-4.16-6.25h-0.26l1.31,1.98
		c1.73,2.59,1.73,5.96,0,8.55l-41.05,61.61c-1.21,1.79-3.13,2.79-5.22,3.12h16.48C462.27,446.62,460.11,445.38,458.96,443.21z"/>
	<path class="st1" d="M298.17,443.21c-1.35-2.51-1.19-5.53,0.38-7.91l38.22-57.34l-4.16-6.25h-0.26l1.31,1.98
		c1.72,2.59,1.72,5.96,0,8.55l-41.08,61.61c-1.19,1.79-3.12,2.79-5.19,3.12h16.46C301.49,446.62,299.32,445.38,298.17,443.21z"/>
	<path class="st1" d="M539.34,443.21c-1.34-2.51-1.18-5.53,0.38-7.91l38.23-57.34l-4.16-6.25h-0.26l1.31,1.98
		c1.72,2.59,1.72,5.96,0,8.55l-41.07,61.61c-1.2,1.79-3.11,2.79-5.2,3.12h16.46C542.66,446.62,540.49,445.38,539.34,443.21z"/>
	<path class="st1" d="M700.13,443.21c-1.36-2.51-1.2-5.53,0.36-7.91l38.25-57.34l-4.17-6.25h-0.26l1.31,1.98
		c1.74,2.59,1.74,5.96,0,8.55l-41.05,61.61c-1.22,1.79-3.14,2.79-5.22,3.12h16.49C703.45,446.62,701.28,445.38,700.13,443.21z"/>
	<path class="st1" d="M780.51,443.21c-1.34-2.51-1.18-5.53,0.38-7.91l38.24-57.34l-4.16-6.25h-0.27l1.32,1.98
		c1.71,2.59,1.71,5.96,0,8.55l-41.08,61.61c-1.19,1.79-3.11,2.79-5.19,3.12h16.46C783.82,446.62,781.67,445.38,780.51,443.21z"/>
	<path class="st1" d="M619.74,443.21c-1.35-2.51-1.21-5.53,0.38-7.91l38.23-57.34l-4.16-6.25h-0.27l1.31,1.98
		c1.74,2.59,1.74,5.96,0,8.55l-41.06,61.61c-1.19,1.79-3.12,2.79-5.19,3.12h16.46C623.05,446.62,620.89,445.38,619.74,443.21z"/>
	<path class="st1" d="M860.92,443.21c-1.36-2.51-1.21-5.53,0.38-7.91l19.59-29.4v-0.38l-25.54,38.33c-1.22,1.79-3.14,2.79-5.21,3.12
		h16.47C864.22,446.62,862.05,445.38,860.92,443.21z"/>
	<path class="st1" d="M197.36,369.68v2.04h54.61l-32.48-48.71C206.08,334.2,197.36,350.83,197.36,369.68z"/>
	<path class="st1" d="M253.29,382.24c1.71-2.59,1.71-5.96,0-8.55l-1.31-1.98h-54.61v75.26h9.65c2.07-0.34,4.01-1.33,5.2-3.12
		L253.29,382.24z"/>
	<path class="st1" d="M304.95,447.28h61.63c0.43,0,0.8-0.24,1.22-0.31h-63.94C304.24,447.05,304.56,447.28,304.95,447.28z"/>
	<path class="st1" d="M298.17,312.71c-1.35,2.5-1.19,5.55,0.38,7.92l34.07,51.09h80.14l-39.76-59.63c-1.43-2.16-3.85-3.43-6.41-3.43
		h-61.63C302.13,308.65,299.51,310.21,298.17,312.71z"/>
	<path class="st1" d="M414.07,382.24c1.72-2.59,1.72-5.96,0-8.55l-1.31-1.98h-80.14l4.16,6.25l-38.22,57.34
		c-1.57,2.37-1.73,5.4-0.38,7.91c1.15,2.17,3.32,3.4,5.69,3.76h63.94c2.07-0.34,4.01-1.33,5.2-3.12L414.07,382.24z"/>
	<path class="st1" d="M465.75,447.28h61.6c0.43,0,0.8-0.24,1.22-0.31h-63.92C465.04,447.05,465.36,447.28,465.75,447.28z"/>
	<path class="st1" d="M458.96,312.71c-1.36,2.5-1.2,5.55,0.38,7.92l34.05,51.09h80.14l-39.76-59.63c-1.43-2.16-3.83-3.43-6.41-3.43
		h-61.6C462.9,308.65,460.31,310.21,458.96,312.71z"/>
	<path class="st1" d="M574.84,382.24c1.72-2.59,1.72-5.96,0-8.55l-1.31-1.98H493.4l4.16,6.25l-38.22,57.34
		c-1.58,2.37-1.74,5.4-0.38,7.91c1.15,2.17,3.31,3.4,5.69,3.76h63.92c2.09-0.34,4-1.33,5.2-3.12L574.84,382.24z"/>
	<path class="st1" d="M626.53,447.28h61.6c0.43,0,0.8-0.24,1.21-0.31h-63.91C625.81,447.05,626.13,447.28,626.53,447.28z"/>
	<path class="st1" d="M619.74,312.71c-1.35,2.5-1.21,5.55,0.38,7.92l34.06,51.09h80.13l-39.74-59.63c-1.46-2.16-3.85-3.43-6.44-3.43
		h-61.6C623.68,308.65,621.08,310.21,619.74,312.71z"/>
	<path class="st1" d="M735.62,382.24c1.74-2.59,1.74-5.96,0-8.55l-1.31-1.98h-80.13l4.16,6.25l-38.23,57.34
		c-1.59,2.37-1.73,5.4-0.38,7.91c1.15,2.17,3.31,3.4,5.69,3.76h63.91c2.09-0.34,4.01-1.33,5.22-3.12L735.62,382.24z"/>
	<path class="st1" d="M787.3,447.28h61.63c0.43,0,0.8-0.24,1.2-0.31h-63.92C786.59,447.05,786.91,447.28,787.3,447.28z"/>
	<path class="st1" d="M780.51,312.71c-1.34,2.5-1.18,5.55,0.38,7.92l34.08,51.09h65.91v-2.04c0-33.7-27.32-61.03-61.03-61.03H787.3
		C784.45,308.65,781.86,310.21,780.51,312.71z"/>
	<path class="st1" d="M880.88,405.52v-33.81h-65.91l4.16,6.25l-38.24,57.34c-1.56,2.37-1.72,5.4-0.38,7.91
		c1.16,2.17,3.31,3.4,5.7,3.76h63.92c2.07-0.34,4-1.33,5.21-3.12L880.88,405.52z"/>
	<path class="st2" d="M224.58,447.28h61.6c0.43,0,0.8-0.24,1.22-0.31h-63.92C223.86,447.05,224.19,447.28,224.58,447.28z"/>
	<path class="st2" d="M332.36,371.72l-39.76-59.63c-1.43-2.16-3.83-3.43-6.41-3.43h-27.79c-14.78,0-28.17,5.47-38.73,14.22
		l32.56,48.85H332.36z"/>
	<path class="st2" d="M333.67,382.24c1.72-2.59,1.72-5.96,0-8.55l-1.31-1.98h-80.14l4.16,6.25l-38.22,57.34
		c-1.58,2.37-1.72,5.4-0.39,7.91c1.17,2.17,3.33,3.4,5.71,3.76h63.92c2.07-0.34,4-1.33,5.19-3.12L333.67,382.24z"/>
	<path class="st2" d="M385.36,447.28h61.6c0.43,0,0.8-0.24,1.22-0.31h-63.91C384.64,447.05,384.96,447.28,385.36,447.28z"/>
	<path class="st2" d="M378.56,312.71c-1.34,2.5-1.2,5.55,0.38,7.92l34.06,51.09h80.13l-39.74-59.63c-1.44-2.16-3.85-3.43-6.44-3.43
		h-61.6C382.5,308.65,379.91,310.21,378.56,312.71z"/>
	<path class="st2" d="M494.45,382.24c1.73-2.59,1.73-5.96,0-8.55l-1.31-1.98h-80.13l4.16,6.25l-38.23,57.34
		c-1.58,2.37-1.72,5.4-0.38,7.91c1.15,2.17,3.31,3.4,5.69,3.76h63.91c2.09-0.34,4.02-1.33,5.22-3.12L494.45,382.24z"/>
	<path class="st2" d="M546.13,447.28h61.62c0.43,0,0.8-0.24,1.22-0.31h-63.94C545.41,447.05,545.74,447.28,546.13,447.28z"/>
	<path class="st2" d="M539.34,312.71c-1.34,2.5-1.18,5.55,0.38,7.92l34.07,51.09h80.12l-39.74-59.63c-1.43-2.16-3.85-3.43-6.41-3.43
		h-61.62C543.3,308.65,540.68,310.21,539.34,312.71z"/>
	<path class="st2" d="M655.22,382.24c1.74-2.59,1.74-5.96,0-8.55l-1.31-1.98H573.8l4.16,6.25l-38.23,57.34
		c-1.57,2.37-1.72,5.4-0.38,7.91c1.16,2.17,3.32,3.4,5.7,3.76h63.94c2.07-0.34,4.01-1.33,5.19-3.12L655.22,382.24z"/>
	<path class="st2" d="M706.93,447.28h61.6c0.43,0,0.8-0.24,1.22-0.31h-63.92C706.21,447.05,706.53,447.28,706.93,447.28z"/>
	<path class="st2" d="M700.13,312.71c-1.36,2.5-1.2,5.55,0.36,7.92l34.08,51.09h80.14l-39.76-59.63c-1.43-2.16-3.83-3.43-6.41-3.43
		h-61.6C704.08,308.65,701.46,310.21,700.13,312.71z"/>
	<path class="st2" d="M816.02,382.24c1.71-2.59,1.71-5.96,0-8.55l-1.32-1.98h-80.14l4.17,6.25l-38.25,57.34
		c-1.56,2.37-1.71,5.4-0.36,7.91c1.14,2.17,3.31,3.4,5.7,3.76h63.92c2.08-0.34,4.01-1.33,5.19-3.12L816.02,382.24z"/>
	<path class="st2" d="M880.88,405.9l-19.59,29.4c-1.59,2.37-1.74,5.4-0.38,7.91c1.13,2.17,3.3,3.4,5.69,3.76h14.28V405.9z"/>
	<rect x="197.36" y="445.11" class="st2" width="683.53" height="8.73"/>
	<g>
		<path class="st2" d="M356.91,741.54v-70.07c0-1.69-0.69-3.05-1.53-3.05h-3c-0.84,0-1.53,1.36-1.53,3.05v70.07
			c0,1.66,0.69,3.05,1.53,3.05h3C356.22,744.59,356.91,743.21,356.91,741.54z"/>
		<path class="st2" d="M518.5,741.54v-70.07c0-1.69-0.69-3.05-1.53-3.05h-3c-0.83,0-1.53,1.36-1.53,3.05v70.07
			c0,1.66,0.69,3.05,1.53,3.05h3C517.81,744.59,518.5,743.21,518.5,741.54z"/>
		<path class="st2" d="M679.6,741.54v-70.07c0-1.69-0.69-3.05-1.53-3.05h-3c-0.84,0-1.53,1.36-1.53,3.05v70.07
			c0,1.66,0.69,3.05,1.53,3.05h3C678.9,744.59,679.6,743.21,679.6,741.54z"/>
	</g>
	<line class="st3" x1="197.36" y1="376.79" x2="880.88" y2="376.79"/>
	<g>
		<g>
			<path class="st2" d="M845.29,522.84H238.17c-1.68,0-3.05,0.69-3.05,1.53v3c0,0.85,1.37,1.53,3.05,1.53h607.12
				c1.68,0,3.05-0.68,3.05-1.53v-3C848.34,523.53,846.97,522.84,845.29,522.84z"/>
			<path class="st2" d="M845.29,585.28H238.17c-1.68,0-3.05,0.68-3.05,1.53v3c0,0.84,1.37,1.53,3.05,1.53h607.12
				c1.68,0,3.05-0.68,3.05-1.53v-3C848.34,585.96,846.97,585.28,845.29,585.28z"/>
			<path class="st2" d="M845.29,647.44H238.17c-1.68,0-3.05,0.68-3.05,1.53v3.01c0,0.84,1.37,1.53,3.05,1.53h607.12
				c1.68,0,3.05-0.69,3.05-1.53v-3.01C848.34,648.13,846.97,647.44,845.29,647.44z"/>
			<path class="st2" d="M453.07,493.77H239.92c-3.01,0-5.42,2.43-5.42,5.43v11.76c0,3,2.42,5.44,5.42,5.44h213.15
				c3,0,5.43-2.43,5.43-5.44V499.2C458.51,496.2,456.07,493.77,453.07,493.77z"/>
			<path class="st2" d="M453.07,618.89H239.92c-3.01,0-5.42,2.43-5.42,5.44v11.75c0,3,2.42,5.43,5.42,5.43h213.15
				c3,0,5.43-2.43,5.43-5.43v-11.75C458.51,621.32,456.07,618.89,453.07,618.89z"/>
			<path class="st2" d="M382.04,556.07H242.13c-3,0-5.43,2.43-5.43,5.43v11.77c0,3,2.42,5.43,5.43,5.43h139.91
				c3.01,0,5.44-2.43,5.44-5.43V561.5C387.48,558.5,385.04,556.07,382.04,556.07z"/>
		</g>
	</g>
</g>
</svg>
