<?xml version="1.0" encoding="utf-8"?>
<!-- Generator: Adobe Illustrator 24.0.1, SVG Export Plug-In . SVG Version: 6.00 Build 0)  -->
<svg version="1.1" id="Layer_1" xmlns="http://www.w3.org/2000/svg" xmlns:xlink="http://www.w3.org/1999/xlink" x="0px" y="0px"
	 viewBox="0 0 1080 1080" style="enable-background:new 0 0 1080 1080;" xml:space="preserve">
<style type="text/css">
	.st0{fill:#F3EAEB;}
	.st1{fill:#2596DC;}
	.st2{fill:#F2EFEF;}
	.st3{fill:none;stroke:#FFFFFF;stroke-width:0.4512;stroke-miterlimit:10;}
	.st4{clip-path:url(#SVGID_2_);}
	.st5{fill:#FFECD6;}
	.st6{opacity:0.3;fill:#2596DC;}
	.st7{fill-rule:evenodd;clip-rule:evenodd;fill:#2596DC;}
	.st8{fill-rule:evenodd;clip-rule:evenodd;fill:#F3EAEB;}
</style>
<circle class="st0" cx="536.58" cy="546.76" r="518.66"/>
<g>
	<path class="st7" d="M728.78,443.35L728.78,443.35c43.69-14.7,80.5-21.93,95.2,21.77l70.4,211.86
		c14.7,43.69-9.02,91.47-52.71,106.17l0,0c-43.69,14.7-91.47-9.02-106.17-52.71l-59.43-180.93
		C661.37,505.82,685.09,458.05,728.78,443.35z"/>
	<path class="st7" d="M857.47,566.42l36.9,110.56c12.66,37.92-3.39,78.83-36.39,98.63C865.82,696.93,808.3,596.69,857.47,566.42z"/>
	<g>
		<path class="st8" d="M853.49,659.55l19.75-11.14c2.52-1.42,5.75-0.52,7.17,2l0,0c1.42,2.52,0.52,5.75-2,7.16l-19.75,11.14
			c-2.52,1.42-5.75,0.52-7.17-2l0,0C850.07,664.19,850.97,660.97,853.49,659.55z"/>
		<path class="st8" d="M865.25,710.42l19.75-11.13c2.52-1.43,5.74-0.52,7.16,1.99l0,0c1.42,2.52,0.52,5.75-2,7.17l-19.75,11.14
			c-2.52,1.42-5.75,0.51-7.16-2h0C861.83,715.07,862.73,711.85,865.25,710.42z"/>
	</g>
	<g>
		<g>
			<path class="st8" d="M847.62,634.11l19.74-11.14c2.52-1.42,5.75-0.52,7.17,2l0,0c1.42,2.52,0.52,5.75-2,7.16l-19.75,11.14
				c-2.52,1.42-5.74,0.52-7.16-2h0C844.19,638.75,845.09,635.53,847.62,634.11z"/>
			<path class="st8" d="M859.37,684.99l19.75-11.14c2.52-1.42,5.74-0.52,7.16,1.99l0,0.01c1.42,2.52,0.52,5.75-2,7.16l-19.75,11.14
				c-2.52,1.42-5.75,0.52-7.16-2h0C855.95,689.63,856.85,686.41,859.37,684.99z"/>
		</g>
	</g>
	<path class="st7" d="M344.39,443.35L344.39,443.35c-43.69-14.7-80.5-21.93-95.2,21.77l-70.4,211.86
		c-14.7,43.69,9.02,91.47,52.71,106.17h0c43.69,14.7,91.47-9.02,106.17-52.71l59.42-180.93
		C411.8,505.82,388.09,458.05,344.39,443.35z"/>
	<path class="st7" d="M215.7,566.42l-36.91,110.56c-12.66,37.92,3.4,78.83,36.39,98.63C207.35,696.93,264.87,596.69,215.7,566.42z"
		/>
	<g>
		<path class="st8" d="M219.68,659.55l-19.75-11.14c-2.52-1.42-5.74-0.52-7.16,2l0,0c-1.42,2.52-0.53,5.75,2,7.16l19.75,11.14
			c2.52,1.42,5.74,0.52,7.16-2l0,0C223.1,664.19,222.2,660.97,219.68,659.55z"/>
		<path class="st8" d="M207.92,710.42l-19.75-11.13c-2.52-1.43-5.75-0.52-7.16,1.99l0,0c-1.42,2.52-0.53,5.75,2,7.17l19.75,11.14
			c2.52,1.42,5.75,0.51,7.16-2l0,0C211.34,715.07,210.44,711.85,207.92,710.42z"/>
	</g>
	<g>
		<path class="st8" d="M225.55,634.11l-19.75-11.14c-2.52-1.42-5.75-0.52-7.16,2l0,0c-1.42,2.52-0.53,5.75,2,7.16l19.75,11.14
			c2.52,1.42,5.75,0.52,7.16-2h0C228.98,638.75,228.08,635.53,225.55,634.11z"/>
		<path class="st8" d="M213.8,684.99l-19.74-11.14c-2.52-1.42-5.75-0.52-7.17,1.99v0.01c-1.42,2.52-0.52,5.75,2,7.16l19.75,11.14
			c2.52,1.42,5.75,0.52,7.16-2l0,0C217.22,689.63,216.32,686.41,213.8,684.99z"/>
	</g>
	<path class="st7" d="M692.64,306.02h81.88c8.14,0,12.35,7.03,14.79,14.79l34.58,109.91c2.44,7.76-6.67,14.8-14.8,14.8H658.06
		c-8.13,0-17.24-7.03-14.79-14.8l34.57-109.91C680.28,313.05,684.5,306.02,692.64,306.02z"/>
	<path class="st7" d="M298.65,306.02h81.88c8.14,0,12.36,7.03,14.8,14.79l34.57,109.91c2.44,7.76-6.66,14.8-14.79,14.8H264.08
		c-8.13,0-17.24-7.03-14.8-14.8l34.58-109.91C286.3,313.05,290.52,306.02,298.65,306.02z"/>
	<path class="st7" d="M365.29,360.98c117.59,13.63,224.45,13.49,342.02,0l0.56,241.88H365.86L365.29,360.98z"/>
	<path class="st7" d="M536.59,371.15c56.01-0.03,112.03-3.44,170.72-10.17l0.56,241.88H536.59V371.15z"/>
	<path class="st7" d="M339.59,329.64c-63.38,0-114.76,51.37-114.76,114.75c0,63.39,51.38,114.76,114.76,114.76
		c6.74,0,13.35-0.58,19.77-1.7c-5.09,11.02-7.93,23.28-7.93,36.2c0,47.74,38.7,86.44,86.44,86.44s86.44-38.7,86.44-86.44
		c0-47.74-38.7-86.44-86.44-86.44c-0.76,0-1.51,0.01-2.26,0.03c11.84-18.06,18.74-39.65,18.74-62.85
		C454.35,381.01,402.97,329.64,339.59,329.64z"/>
	<path class="st8" d="M437.88,652.81c32.58,0,59.16-26.57,59.16-59.16s-26.57-59.16-59.16-59.16c-32.58,0-59.16,26.57-59.16,59.16
		S405.29,652.81,437.88,652.81z"/>
	<path class="st7" d="M437.88,635.29c22.93,0,41.64-18.71,41.64-41.64c0-22.93-18.71-41.64-41.64-41.64
		c-22.93,0-41.64,18.71-41.64,41.64C396.23,616.58,414.94,635.29,437.88,635.29z"/>
	<path class="st7" d="M733.58,329.64c63.38,0,114.76,51.37,114.76,114.75c0,63.39-51.38,114.76-114.76,114.76
		c-6.74,0-13.35-0.58-19.77-1.7c5.09,11.02,7.93,23.28,7.93,36.2c0,47.74-38.7,86.44-86.44,86.44c-47.74,0-86.44-38.7-86.44-86.44
		c0-47.74,38.7-86.44,86.44-86.44c0.75,0,1.51,0.01,2.26,0.03c-11.84-18.06-18.74-39.65-18.74-62.85
		C618.82,381.01,670.2,329.64,733.58,329.64z"/>
	<path class="st8" d="M796.9,479.82c19.51,0,35.43-15.91,35.43-35.43c0-19.51-15.91-35.42-35.43-35.42
		c-19.51,0-35.43,15.91-35.43,35.42C761.47,463.91,777.39,479.82,796.9,479.82z"/>
	<path class="st8" d="M734.88,542c19.51,0,35.43-15.91,35.43-35.43s-15.92-35.43-35.43-35.43c-19.51,0-35.43,15.91-35.43,35.43
		S715.37,542,734.88,542z"/>
	<path class="st8" d="M670.26,479.82c19.51,0,35.43-15.91,35.43-35.43c0-19.51-15.91-35.42-35.43-35.42
		c-19.51,0-35.43,15.91-35.43,35.42C634.83,463.91,650.74,479.82,670.26,479.82z"/>
	<path class="st8" d="M734.88,417.64c19.51,0,35.43-15.91,35.43-35.43c0-19.51-15.92-35.43-35.43-35.43
		c-19.51,0-35.43,15.92-35.43,35.43C699.45,401.73,715.37,417.64,734.88,417.64z"/>
	
		<ellipse transform="matrix(0.9266 -0.3761 0.3761 0.9266 -108.6318 332.3848)" class="st8" cx="796.9" cy="444.39" rx="30.36" ry="30.36"/>
	<path class="st8" d="M670.26,474.75c16.72,0,30.36-13.64,30.36-30.36s-13.64-30.36-30.36-30.36c-16.72,0-30.36,13.64-30.36,30.36
		S653.53,474.75,670.26,474.75z"/>
	<circle class="st8" cx="734.88" cy="382.21" r="30.36"/>
	<circle class="st8" cx="734.88" cy="506.57" r="30.36"/>
	<g>
		<g>
			<path class="st7" d="M662.73,439.82l4.25-2v15.77h-4.25v5.66h17.01v-5.66h-3.96v-24.07h-7.57c-3.1,3.7-5.02,4.38-7.44,5.57
				L662.73,439.82z"/>
			<path class="st7" d="M728.33,377.24c1.27-1.36,2.93-3.23,5.23-3.23c1.96,0,3.57,0.64,3.57,2.81c0,2.64-4.51,4.42-7.53,7.1
				c-2.72,2.17-3.87,3.4-6.21,7.23v6.17h22.96v-9.06h-7.14v3.4h-7.48c0.98-1.69,4.34-4.37,6.38-5.69c4.5-2.93,6.8-4.63,6.8-9.52
				c0-5.74-4.46-9.31-10.12-9.31c-4.25,0-8.08,1.83-11.06,5.27L728.33,377.24z"/>
			<path class="st7" d="M729.1,500.21c1.49-1.57,3.36-2.55,4.98-2.55c1.79,0,3.74,1.06,3.74,3.36c0,1.91-1.57,2.93-3.62,2.93h-3.1
				v5.06h3.19c2.13,0,3.53,0.81,3.53,3.1c0,2.13-1.44,3.28-3.83,3.28c-2.42,0-4.04-1.19-5.61-2.76l-4.34,4.51
				c1.66,2.47,5.87,4.81,9.91,4.81c5.74,0,11.78-3.06,11.78-9.36c0-3.83-2.59-5.99-3.95-6.97c1.1-0.85,3.14-2.51,3.14-5.41
				c0-5.44-3.91-9.01-10.84-9.01c-3.87,0-7.57,2.37-9.1,4.03L729.1,500.21z"/>
			<path class="st7" d="M785.23,444.8v6.08h12.24v2.76h-2.68v5.62h13.78v-5.62h-2.3v-2.76h2.25v-4.59h-2.25v-16.75h-8.8
				L785.23,444.8L785.23,444.8z M797.47,446.28h-6.29l6.29-7.86V446.28z"/>
		</g>
	</g>
	
		<ellipse transform="matrix(0.7071 -0.7071 0.7071 0.7071 -214.7673 370.2881)" class="st8" cx="339.59" cy="444.39" rx="84.96" ry="84.96"/>
	<g>
		<g>
			<rect x="319.86" y="382.24" class="st7" width="39.46" height="124.3"/>
			<rect x="277.44" y="424.67" class="st7" width="124.31" height="39.46"/>
		</g>
	</g>
	<path class="st8" d="M635.29,652.81c32.58,0,59.16-26.57,59.16-59.16s-26.57-59.16-59.16-59.16c-32.58,0-59.16,26.57-59.16,59.16
		S602.71,652.81,635.29,652.81z"/>
	<path class="st7" d="M635.29,635.29c22.93,0,41.64-18.71,41.64-41.64c0-22.93-18.71-41.64-41.64-41.64
		c-22.93,0-41.64,18.71-41.64,41.64C593.65,616.58,612.36,635.29,635.29,635.29z"/>
	<g>
		<path class="st8" d="M496.15,454.63h18c7.89,0,14.35,6.45,14.35,14.34v0.01c0,7.89-6.45,14.34-14.35,14.34h-18
			c-7.89,0-14.34-6.45-14.34-14.34v-0.01C481.81,461.08,488.26,454.63,496.15,454.63z"/>
		<path class="st8" d="M559.02,454.63h18c7.89,0,14.35,6.45,14.35,14.34v0.01c0,7.89-6.45,14.34-14.35,14.34h-18
			c-7.89,0-14.35-6.45-14.35-14.34v-0.01C544.67,461.08,551.13,454.63,559.02,454.63z"/>
	</g>
	<path class="st8" d="M527.58,490.49h18c7.89,0,14.35,6.45,14.35,14.34v0.01c0,7.89-6.45,14.34-14.35,14.34h-18
		c-7.89,0-14.34-6.45-14.34-14.34v-0.01C513.24,496.94,519.69,490.49,527.58,490.49z"/>
	<path class="st8" d="M536.59,490.49h9c7.89,0,14.35,6.45,14.35,14.34l0,0c0,7.9-6.45,14.35-14.35,14.35h-9V490.49z"/>
	<path class="st8" d="M486.21,385.57h100.74c6.02,0,10.95,4.92,10.95,10.94v21.98c0,6.03-4.93,10.95-10.95,10.95H486.21
		c-6.02,0-10.95-4.92-10.95-10.95v-21.98C475.27,390.5,480.19,385.57,486.21,385.57z"/>
	<path class="st8" d="M536.59,385.57h50.37c6.02,0,10.95,4.92,10.95,10.95v21.97c0,6.03-4.93,10.95-10.95,10.95h-50.37V385.57z"/>
</g>
</svg>
